<?xml version="1.0" encoding="UTF-8" standalone="no"?>
<!-- Created with Inkscape (http://www.inkscape.org/) -->

<svg
   xmlns:dc="http://purl.org/dc/elements/1.1/"
   xmlns:cc="http://creativecommons.org/ns#"
   xmlns:rdf="http://www.w3.org/1999/02/22-rdf-syntax-ns#"
   xmlns:svg="http://www.w3.org/2000/svg"
   xmlns="http://www.w3.org/2000/svg"
   xmlns:sodipodi="http://sodipodi.sourceforge.net/DTD/sodipodi-0.dtd"
   xmlns:inkscape="http://www.inkscape.org/namespaces/inkscape"
   width="490mm"
   height="240mm"
   viewBox="0 0 490.00003 240.00001"
   version="1.1"
   id="svg8"
   sodipodi:docname="ChalmersSignalV3.svg"
   inkscape:version="0.92.3 (2405546, 2018-03-11)">
  <defs
     id="defs2" />
  <sodipodi:namedview
     id="base"
     pagecolor="#838383"
     bordercolor="#666666"
     borderopacity="1.0"
     inkscape:pageopacity="0"
     inkscape:pageshadow="2"
     inkscape:zoom="0.5"
     inkscape:cx="955.10607"
     inkscape:cy="-94.293861"
     inkscape:document-units="mm"
     inkscape:current-layer="layer2"
     showgrid="true"
     units="mm"
     inkscape:window-width="960"
     inkscape:window-height="1043"
     inkscape:window-x="0"
     inkscape:window-y="0"
     inkscape:window-maximized="0"
     showguides="false"
     inkscape:snap-global="true">
    <inkscape:grid
       type="xygrid"
       id="grid911"
       empcolor="#a71d00"
       empopacity="0.34509804"
       empspacing="5"
       color="#ffa33f"
       opacity="0.4" />
  </sodipodi:namedview>
  <metadata
     id="metadata5">
    <rdf:RDF>
      <cc:Work
         rdf:about="">
        <dc:format>image/svg+xml</dc:format>
        <dc:type
           rdf:resource="http://purl.org/dc/dcmitype/StillImage" />
        <dc:title></dc:title>
      </cc:Work>
    </rdf:RDF>
  </metadata>
  <g
     inkscape:groupmode="layer"
     id="layer2"
     inkscape:label="Graphics"
     transform="translate(0,-39.399988)">
    <g
       id="g4690">
      <path
         sodipodi:nodetypes="cccsccc"
         inkscape:connector-curvature="0"
         id="path4662"
         d="m 0.05,279.34998 c 0,0 -0.05,-33 4.95,-33 l 73.050002,0 c 12,0 14,-42 26.999998,-42 h 10.01541 l 29.98459,75 z"
         style="opacity:1;fill:none;fill-opacity:1;stroke:#000000;stroke-width:0.1;stroke-miterlimit:4;stroke-dasharray:none;stroke-opacity:1" />
      <rect
         ry="1.9543232"
         rx="1.9543232"
         y="249.44566"
         x="5"
         height="22.908663"
         width="61.908665"
         id="rect4682"
         style="opacity:1;fill:none;fill-opacity:1;stroke:#000000;stroke-width:0.09133792;stroke-miterlimit:4;stroke-dasharray:none;stroke-opacity:1" />
    </g>
    <path
       sodipodi:nodetypes="cccsccc"
       inkscape:connector-curvature="0"
       id="path4686"
       d="m -5.01541,224.39999 c 0,0 -0.05,-33 4.95,-33 h 73.050002 c 12,0 14,-42 26.999998,-42 H 110 l 29.98459,75 z"
       style="opacity:1;fill:none;fill-opacity:1;stroke:#000000;stroke-width:0.1;stroke-miterlimit:4;stroke-dasharray:none;stroke-opacity:1" />
    <g
       id="g4696"
       transform="translate(-326.90866)">
      <path
         style="opacity:1;fill:none;fill-opacity:1;stroke:#000000;stroke-width:0.1;stroke-miterlimit:4;stroke-dasharray:none;stroke-opacity:1"
         d="m 0.05,279.34998 c 0,0 -0.05,-33 4.95,-33 h 73.050002 c 12,0 14,-42 26.999998,-42 h 10.01541 l 29.98459,75 z"
         id="path4692"
         inkscape:connector-curvature="0"
         sodipodi:nodetypes="cccsccc" />
      <rect
         style="opacity:1;fill:none;fill-opacity:1;stroke:#000000;stroke-width:0.09133792;stroke-miterlimit:4;stroke-dasharray:none;stroke-opacity:1"
         id="rect4694"
         width="61.908665"
         height="22.908663"
         x="5"
         y="249.44566"
         rx="1.9543232"
         ry="1.9543232" />
    </g>
    <path
       sodipodi:nodetypes="ccsccccccsccc"
       inkscape:connector-curvature="0"
       id="path4698"
       d="M 145.05,161.39222 115.06541,86.392217 H 105.05 c -12.999998,0 -14.999998,42.000003 -26.999998,42.000003 H 5 c -5,0 -4.95,33 -4.95,33 h 2.9501668 c 0,0 -0.5522783,-30.04393 3.9998332,-30.04393 h 73 c 10.925067,0 15.026998,-41.948303 26.86249,-41.948303 H 113 l 27.29466,71.992233 z"
       style="opacity:1;fill:none;fill-opacity:1;stroke:#000000;stroke-width:0.1;stroke-miterlimit:4;stroke-dasharray:none;stroke-opacity:1" />
    <g
       id="g4717"
       transform="translate(-360.05)">
      <g
         id="g4715"
         transform="translate(0,-99.949993)">
        <path
           style="opacity:1;fill:none;fill-opacity:1;stroke:#000000;stroke-width:0.1;stroke-miterlimit:4;stroke-dasharray:none;stroke-opacity:1"
           d="m 0.05,279.34998 c 0,0 -0.05,-33 4.95,-33 h 73.050002 c 12,0 14,-42 26.999998,-42 h 10.01541 l 29.98459,75 z"
           id="path4711"
           inkscape:connector-curvature="0"
           sodipodi:nodetypes="cccsccc" />
        <path
           sodipodi:nodetypes="cccsccc"
           inkscape:connector-curvature="0"
           id="path4713"
           d="m 3,279.34998 c 0,0 -0.5521115,-30.04393 4,-30.04393 h 73 c 10.925067,0 15.026998,-41.9483 26.86249,-41.9483 H 113 l 27.29864,71.99223 z"
           style="opacity:1;fill:none;fill-opacity:1;stroke:#000000;stroke-width:0.09104221;stroke-miterlimit:4;stroke-dasharray:none;stroke-opacity:1" />
      </g>
    </g>
    <path
       style="opacity:1;fill:none;fill-opacity:1;stroke:#000000;stroke-width:0.1;stroke-miterlimit:4;stroke-dasharray:none;stroke-opacity:1"
       d="m -27.950167,199.39999 -29.98459,-75 h -10.01541 c -12.999998,0 -14.999998,42 -26.999998,42 h -73.050005 c -5,0 -4.95,33 -4.95,33 H -170 c 0,0 -0.55228,-30.04393 3.99983,-30.04393 h 73.000003 c 10.925067,0 15.026998,-41.9483 26.86249,-41.9483 h 6.13751 l 27.29466,71.99223 z"
       id="path4724"
       inkscape:connector-curvature="0"
       sodipodi:nodetypes="ccsccccccsccc" />
    <path
       style="opacity:1;fill:none;fill-opacity:1;stroke:#000000;stroke-width:0.1;stroke-miterlimit:4;stroke-dasharray:none;stroke-opacity:1"
       d="M 125.11168,61.520804 115.06541,36.392214 H 105.05 c -12.999998,0 -14.999998,42.000003 -26.999998,42.000003 H 5 c -5,0 -4.95,33.000003 -4.95,33.000003 h 2.9501668 c 0,0 -0.5522783,-30.043933 3.9998332,-30.043933 h 73 c 10.925067,0 15.026998,-41.948303 26.86249,-41.948303 H 113 l 8.94213,23.32729 z M 130.15841,84.161067 136,99.399987 c 1.33004,3.930673 -6.23873,4.992433 -11,5.000003 v 7 l 15.29466,-0.008 4.75534,2.3e-4 -11.42266,-28.571324 z"
       id="path4728"
       inkscape:connector-curvature="0"
       sodipodi:nodetypes="ccsccccccsccccccccccc" />
    <rect
       transform="rotate(-20.973772)"
       ry="0"
       rx="0"
       y="50.623753"
       x="-71.540596"
       height="22.944607"
       width="15.044607"
       id="rect4732"
       style="opacity:1;fill:none;fill-opacity:1;stroke:#000000;stroke-width:0.05539295;stroke-miterlimit:4;stroke-dasharray:none;stroke-opacity:1" />
    <path
       sodipodi:nodetypes="ccsccccccscccccc"
       inkscape:connector-curvature="0"
       id="path4734"
       d="M -20,119.39999 -49.98459,44.399984 H -60 c -12.999998,0 -14.999998,42.000003 -26.999998,42.000003 H -160.05 c -5,0 -4.95,33.000003 -4.95,33.000003 h 2.95017 c 0,0 -0.55228,-30.043933 3.99983,-30.043933 h 73 c 10.925067,0 15.026998,-41.948303 26.86249,-41.948303 H -52.05 l 23,60.000006 c 1.33004,3.93067 -6.23873,4.99243 -11,5 v 7 l 15.29466,-0.008 z"
       style="opacity:1;fill:none;fill-opacity:1;stroke:#000000;stroke-width:0.1;stroke-miterlimit:4;stroke-dasharray:none;stroke-opacity:1" />
    <path
       sodipodi:nodetypes="ccsccccccsccccccccccc"
       inkscape:connector-curvature="0"
       id="path4736"
       d="m 125.11168,-25.471426 -10.04627,-25.12859 H 105.05 c -12.999998,0 -14.999998,42.0000026 -26.999998,42.0000026 H 5 c -5,0 -4.95,33.0000004 -4.95,33.0000004 h 2.9501668 c 0,0 -0.5522783,-30.0439304 3.9998332,-30.0439304 h 73 c 10.925067,0 15.026998,-41.9483026 26.86249,-41.9483026 H 113 l 8.94213,23.32729 z M 130.15841,-2.8311634 136,12.407757 c 1.33004,3.93067 -6.23873,4.99243 -11,5 v 7 l 15.29466,-0.008 4.75534,2.3e-4 -11.42266,-28.5713214 z"
       style="opacity:1;fill:none;fill-opacity:1;stroke:#000000;stroke-width:0.1;stroke-miterlimit:4;stroke-dasharray:none;stroke-opacity:1" />
    <path
       style="opacity:1;fill:none;fill-opacity:1;stroke:#000000;stroke-width:0.1;stroke-miterlimit:4;stroke-dasharray:none;stroke-opacity:1"
       d="M 240.01,81.348287 H 277 c 10.92507,0 15.027,-41.9483 26.86249,-41.9483 H 310 l 27.29466,71.992233 H 342.05 L 312.06541,36.392217 H 302.05 c -13,0 -15,42 -27,42 h -35.05301 z m -11.90924,-2.95607 H 202 c -5,0 -4.95,33.000003 -4.95,33.000003 h 2.95017 c 0,0 -0.55228,-30.043933 3.99983,-30.043933 h 24.10509 z"
       id="path4738"
       inkscape:connector-curvature="0"
       sodipodi:nodetypes="ccsccccscccccccccc" />
    <path
       style="opacity:1;fill:none;fill-opacity:1;stroke:#000000;stroke-width:0.1;stroke-miterlimit:4;stroke-dasharray:none;stroke-opacity:1"
       d="M 228.11376,113.39223 H 201.95 c -5,0 -4.95,33.00001 -4.95,33.00001 h 2.95017 c 0,0 -0.55228,-30.04394 3.99983,-30.04394 h 24.16376 z m 11.87086,2.95607 H 276.95 c 10.92507,0 15.027,-41.948313 26.86249,-41.948313 H 309.95 l 23,60.000023 c 1.33004,3.93067 -6.23873,4.99243 -11,5 v 7 l 15.29466,-0.008 L 342,146.39224 312.01541,71.392217 H 302 c -13,0 -15,42.000013 -27,42.000013 h -35.00311 z"
       id="path4740"
       inkscape:connector-curvature="0"
       sodipodi:nodetypes="cccccccccscccccccsccc" />
    <path
       sodipodi:nodetypes="ccsccccscccccccccc"
       inkscape:connector-curvature="0"
       id="path4744"
       d="M 240.01,-40.401712 H 277 c 10.92507,0 15.027,-41.9483 26.86249,-41.9483 H 310 l 27.29466,71.992233 H 342.05 L 312.06541,-85.357782 H 302.05 c -13,0 -15,42 -27,42 h -35.05301 z m -11.90924,-2.95607 H 202 c -5,0 -4.95,33.000003 -4.95,33.000003 h 2.95017 c 0,0 -0.55228,-30.043933 3.99983,-30.043933 h 24.10509 z"
       style="opacity:1;fill:none;fill-opacity:1;stroke:#000000;stroke-width:0.1;stroke-miterlimit:4;stroke-dasharray:none;stroke-opacity:1" />
    <path
       sodipodi:nodetypes="cccccccccscccccccsccc"
       inkscape:connector-curvature="0"
       id="path4746"
       d="M 228.11376,-3.5999994 H 201.95 c -5,0 -4.95,33.0000104 -4.95,33.0000104 h 2.95017 c 0,0 -0.55228,-30.0439404 3.99983,-30.0439404 h 24.16376 z m 11.87086,2.95607 H 276.95 c 10.92507,0 15.027,-41.9483136 26.86249,-41.9483136 H 309.95 l 23,60.000024 c 1.33004,3.93067 -6.23873,4.99243 -11,5 v 7 l 15.29466,-0.008 4.75534,2.3e-4 -29.98459,-75.000024 H 302 c -13,0 -15,42.0000136 -27,42.0000136 h -35.00311 z"
       style="opacity:1;fill:none;fill-opacity:1;stroke:#000000;stroke-width:0.1;stroke-miterlimit:4;stroke-dasharray:none;stroke-opacity:1" />
    <path
       sodipodi:nodetypes="ccccccccccccccscccccccsccc"
       inkscape:connector-curvature="0"
       id="path4748"
       d="m 197.09103,381.42265 c -0.0947,3.54453 -0.091,5.97735 -0.091,5.97735 h 2.95017 c 0,0 -0.0454,-2.46721 -0.003,-5.98758 z m 3.04507,-6.93536 c 0.36134,-8.14373 1.32413,-17.13123 3.81387,-17.13123 h 24.16376 v -2.95607 H 201.95 c -2.86683,0 -4.07348,10.8487 -4.58126,20.10555 z m 39.84852,-17.13123 H 276.95 c 10.92507,0 15.027,-41.94831 26.86249,-41.94831 H 309.95 l 23,60.00002 c 1.33004,3.93067 -6.23873,4.99243 -11,5 v 7 l 15.29466,-0.008 L 342,387.4 312.01541,312.39998 H 302 c -13,0 -15,42.00001 -27,42.00001 h -35.00311 z"
       style="opacity:1;fill:none;fill-opacity:1;stroke:#000000;stroke-width:0.1;stroke-miterlimit:4;stroke-dasharray:none;stroke-opacity:1" />
    <path
       style="opacity:1;fill:none;fill-opacity:1;stroke:#000000;stroke-width:0.1;stroke-miterlimit:4;stroke-dasharray:none;stroke-opacity:1"
       d="m 197.14152,460.38992 c -0.0954,3.55806 -0.0917,6.0023 -0.0917,6.0023 H 200 c 0,0 -0.0454,-2.47003 -0.003,-5.99363 z m 3.04467,-6.91551 c 0.36152,-8.14237 1.32442,-17.12612 3.81364,-17.12612 h 73 c 10.92507,0 15.027,-41.9483 26.86249,-41.9483 h 6.13751 l 27.29466,71.99223 h 4.75534 l -29.98459,-75 h -10.01541 c -13,0 -15,42 -27,42 h -73.05 c -2.86673,0 -4.0734,10.84795 -4.58121,20.10459 z"
       id="path4752"
       inkscape:connector-curvature="0"
       sodipodi:nodetypes="ccccccccsccccscccc" />
    <path
       sodipodi:nodetypes="ccccccsccccsccccccccccc"
       inkscape:connector-curvature="0"
       id="path4754"
       d="m 197.14152,237.07223 c -0.0954,3.55806 -0.0917,6.0023 -0.0917,6.0023 H 200 c 0,0 -0.0454,-2.47003 -0.003,-5.99363 z m 95.99859,-52.95426 c 3.00522,-7.2627 6.33156,-13.03567 10.72221,-13.03567 h 6.13751 l 27.29466,71.99223 h 4.75534 l -29.98459,-75 h -10.01541 c -5.2539,0 -8.71112,6.86003 -11.7579,15.03519 z m -6.824,10.28202 c -3.03419,8.45365 -6.2906,15.67454 -11.26628,15.67454 h -73.05 c -2.86673,0 -4.0734,10.84795 -4.58121,20.10459 l 2.76757,-0.0224 c 0.36152,-8.14237 1.32442,-17.12612 3.81364,-17.12612 h 73 c 4.8959,0 8.42155,-8.42427 11.88701,-17.72239 z"
       style="opacity:1;fill:none;fill-opacity:1;stroke:#000000;stroke-width:0.1;stroke-miterlimit:4;stroke-dasharray:none;stroke-opacity:1" />
    <path
       style="opacity:1;fill:none;fill-opacity:1;stroke:#000000;stroke-width:0.10000012;stroke-miterlimit:4;stroke-dasharray:none;stroke-opacity:1"
       d="m 197.09103,273.36483 c -0.0947,3.54454 -0.091,5.97736 -0.091,5.97736 h 2.95017 c 0,0 -0.0454,-2.46721 -0.003,-5.98759 z m 3.04507,-6.93538 c 0.36134,-8.14375 1.32413,-17.13127 3.81387,-17.13127 h 24.16376 V 246.3421 H 201.95 c -2.86683,0 -4.07348,10.84873 -4.58126,20.1056 z m 92.95877,-46.05508 c 3.00402,-7.2575 6.32921,-13.0246 10.71762,-13.0246 H 309.95 l 23,60.00016 c 1.33004,3.93068 -6.23873,4.99244 -11,5.00001 v 7.00002 l 15.29466,-0.008 4.75534,2.3e-4 -29.98459,-75.0002 H 302 c -5.25112,0 -8.70747,6.8528 -11.75307,15.02226 z m -6.82215,10.2752 C 283.2367,239.11096 279.9792,246.3421 275,246.3421 h -35.00311 l -0.0123,2.95608 H 276.95 c 4.89937,0 8.42654,-8.4362 11.89435,-17.74214 z"
       id="path4758"
       inkscape:connector-curvature="0"
       sodipodi:nodetypes="cccccccccccccscccccccsccccccccc" />
    <g
       id="g4770">
      <g
         id="g4765">
        <rect
           transform="rotate(19.448023)"
           ry="0"
           rx="0"
           y="129.12675"
           x="580.78516"
           height="11.963607"
           width="9.9636068"
           id="rect4760"
           style="opacity:1;fill:none;fill-opacity:1;stroke:#000000;stroke-width:0.03639301;stroke-miterlimit:4;stroke-dasharray:none;stroke-opacity:1" />
      </g>
      <path
         style="opacity:1;fill:none;fill-opacity:1;stroke:#000000;stroke-width:0.10000012;stroke-miterlimit:4;stroke-dasharray:none;stroke-opacity:1"
         d="m 415.14103,370.41488 c -0.0947,3.54454 -0.091,5.97736 -0.091,5.97736 h 2.95017 c 0,0 -0.0454,-2.46721 -0.003,-5.98759 z m 3.04507,-6.93538 c 0.36134,-8.14375 1.32413,-17.13127 3.81387,-17.13127 h 24.16376 v -2.95608 H 420 c -2.86683,0 -4.07348,10.84873 -4.58126,20.1056 z m 92.95877,-46.05508 c 3.00402,-7.2575 6.32921,-13.0246 10.71762,-13.0246 H 528 l 23,60.00016 c 1.33004,3.93068 -6.23873,4.99244 -11,5.00001 v 7.00002 l 15.29466,-0.008 4.75534,2.3e-4 -29.98459,-75.0002 H 520.05 c -5.25112,0 -8.70747,6.8528 -11.75307,15.02226 z m -6.82215,10.2752 c -3.03602,8.46139 -6.29352,15.69253 -11.27272,15.69253 h -35.00311 l -0.0123,2.95608 H 495 c 4.89937,0 8.42654,-8.4362 11.89435,-17.74214 z"
         id="path4762"
         inkscape:connector-curvature="0"
         sodipodi:nodetypes="cccccccccccccscccccccsccccccccc" />
    </g>
    <path
       sodipodi:nodetypes="ccccccccsccccscccc"
       inkscape:connector-curvature="0"
       id="path4772"
       d="m 197.14152,206.3155 c -0.0954,3.55806 -0.0917,6.0023 -0.0917,6.0023 H 200 c 0,0 -0.0454,-2.47003 -0.003,-5.99363 z m 3.04467,-6.91551 c 0.36152,-8.14237 1.32442,-17.12612 3.81364,-17.12612 h 73 c 10.92507,0 15.027,-41.9483 26.86249,-41.9483 h 6.13751 l 27.29466,71.99223 h 4.75534 l -29.98459,-75 h -10.01541 c -13,0 -15,42 -27,42 h -73.05 c -2.86673,0 -4.0734,10.84795 -4.58121,20.10459 z"
       style="opacity:1;fill:none;fill-opacity:1;stroke:#000000;stroke-width:0.1;stroke-miterlimit:4;stroke-dasharray:none;stroke-opacity:1" />
    <path
       style="opacity:1;fill:none;fill-opacity:1;stroke:#000000;stroke-width:0.1;stroke-miterlimit:4;stroke-dasharray:none;stroke-opacity:1"
       d="M 33.12867,-63.556083 H 7.086249 c -5,0 -4.95,33.000002 -4.95,33.000002 h 2.95016 c 0,0 -0.55227,-30.043932 3.99984,-30.043932 H 33.14378 Z M 45,-60.600013 h 37.086249 c 10.925061,0 15.026989,-41.948307 26.862481,-41.948307 h 6.13751 l 8.94213,23.327287 3.16955,-1.20647 -10.04627,-25.128587 h -10.01541 c -13.000001,0 -15,42.000007 -26.999991,42.000007 H 45.019 Z m 87.24465,2.81277 5.84159,15.238922 c 1.33004,3.93067 -6.23873,4.99243 -11,5 v 7.00001 l 15.29466,-0.008 4.75534,2.3e-4 -11.42266,-28.571321 z"
       id="path4728-3"
       inkscape:connector-curvature="0"
       sodipodi:nodetypes="cccccccccsccccsccccccccccc" />
  </g>
</svg>
