<?xml version="1.0" encoding="UTF-8" standalone="no"?>
<svg
   xmlns:dc="http://purl.org/dc/elements/1.1/"
   xmlns:cc="http://creativecommons.org/ns#"
   xmlns:rdf="http://www.w3.org/1999/02/22-rdf-syntax-ns#"
   xmlns:svg="http://www.w3.org/2000/svg"
   xmlns="http://www.w3.org/2000/svg"
   width="102mm"
   height="205mm"
   viewBox="0 0 102.00001 205.00001"
   version="1.1"
   id="svg8">
  <defs
     id="defs2" />
  <metadata
     id="metadata5">
    <rdf:RDF>
      <cc:Work
         rdf:about="">
        <dc:format>image/svg+xml</dc:format>
        <dc:type
           rdf:resource="http://purl.org/dc/dcmitype/StillImage" />
        <dc:title></dc:title>
      </cc:Work>
    </rdf:RDF>
  </metadata>
  <path
     id="path812"
     d="M 5.3164674,202.31677 A 2.6332338,2.6332338 0 0 1 2.6832338,204.95001 2.6332338,2.6332338 0 0 1 0.05,202.31677 a 2.6332338,2.6332338 0 0 1 2.6332338,-2.63323 2.6332338,2.6332338 0 0 1 2.6332336,2.63323 z"
     style="opacity:1;fill:none;fill-opacity:1;stroke:#000000;stroke-width:0.10000001;stroke-miterlimit:4;stroke-dasharray:none;stroke-opacity:1" />
  <path
     id="path814"
     d="m 2.2952995,202.31677 a 0.72737688,0.72737688 0 0 1 -0.7273768,0.72738 0.72737688,0.72737688 0 0 1 -0.7273769,-0.72738 0.72737688,0.72737688 0 0 1 0.7273769,-0.72737 0.72737688,0.72737688 0 0 1 0.7273768,0.72737 z"
     style="opacity:1;fill:none;fill-opacity:1;stroke:#000000;stroke-width:0.10000001;stroke-miterlimit:4;stroke-dasharray:none;stroke-opacity:1" />
  <path
     id="circle816"
     d="m 4.5259218,202.31677 a 0.72737688,0.72737688 0 0 1 -0.7273769,0.72738 0.72737688,0.72737688 0 0 1 -0.7273768,-0.72738 0.72737688,0.72737688 0 0 1 0.7273768,-0.72737 0.72737688,0.72737688 0 0 1 0.7273769,0.72737 z"
     style="opacity:1;fill:none;fill-opacity:1;stroke:#000000;stroke-width:0.10000001;stroke-miterlimit:4;stroke-dasharray:none;stroke-opacity:1" />
</svg>
