<?xml version="1.0" encoding="UTF-8" standalone="no"?>
<svg
   xmlns:dc="http://purl.org/dc/elements/1.1/"
   xmlns:cc="http://creativecommons.org/ns#"
   xmlns:rdf="http://www.w3.org/1999/02/22-rdf-syntax-ns#"
   xmlns:svg="http://www.w3.org/2000/svg"
   xmlns="http://www.w3.org/2000/svg"
   id="svg8"
   version="1.1"
   viewBox="0 0 431.80001 279.40001"
   height="11in"
   width="17in">
  <defs
     id="defs2" />
  <metadata
     id="metadata5">
    <rdf:RDF>
      <cc:Work
         rdf:about="">
        <dc:format>image/svg+xml</dc:format>
        <dc:type
           rdf:resource="http://purl.org/dc/dcmitype/StillImage" />
        <dc:title></dc:title>
      </cc:Work>
    </rdf:RDF>
  </metadata>
  <g
     id="layer2">
    <path
       style="opacity:1;fill:none;fill-opacity:1;stroke:#ffffff;stroke-width:0.47820675;stroke-miterlimit:4;stroke-dasharray:none;stroke-opacity:1"
       d="m 47.059347,235.56121 c 0,4.50714 -3.65376,8.1609 -8.1609,8.1609 -4.50714,0 -8.1609,-3.65376 -8.1609,-8.1609 l -0.11451,-8.65793 v -3.7508 h 16.550811 v 3.7508 z"
       id="path957" />
    <path
       id="rect973"
       d="m 22.196863,249.03438 h 34.520683 v 8.72068 H 22.196863 Z"
       style="opacity:1;fill:none;fill-opacity:1;stroke:#ffffff;stroke-width:0.27931732;stroke-miterlimit:4;stroke-dasharray:none;stroke-opacity:1" />
    <path
       id="rect1127"
       d="m 12.176655,168.61925 h 53.443579 c 4.431932,0 7.999878,3.56794 7.999878,7.99988 v 83.44359 c 0,4.43193 -3.567946,7.99988 -7.999878,7.99988 H 12.176655 c -4.4319331,0 -7.9998791,-3.56795 -7.9998791,-7.99988 v -83.44359 c 0,-4.43194 3.567946,-7.99988 7.9998791,-7.99988 z"
       style="opacity:1;fill:none;fill-opacity:1;stroke:#ffffff;stroke-width:0.5566594;stroke-miterlimit:4;stroke-dasharray:none;stroke-opacity:1" />
    <path
       id="rect1400"
       d="m 13.826207,180.95646 v -3.77772 l 11.63923,0.0556 0.0283,-3.02577 0.80001,-0.009 -0.0392,-3.10986 h 25.287807 l 0.0028,3.1168 0.758045,0.002 v 25.50941 l -0.750824,-0.002 -0.01,20.66147 H 26.254557 l -0.006,-20.65041 -0.7549,-0.009 -0.0283,-18.76148 z"
       style="opacity:1;fill:none;fill-opacity:1;stroke:#ffffff;stroke-width:0.5;stroke-miterlimit:4;stroke-dasharray:none;stroke-opacity:1" />
    <path
       id="rect1311"
       d="m 100.02355,248.97545 h 11.38293 v 8.83853 h -11.38293 z"
       style="opacity:1;fill:none;fill-opacity:1;stroke:#ffffff;stroke-width:0.16147296;stroke-miterlimit:4;stroke-dasharray:none;stroke-opacity:1" />
    <path
       id="rect1313"
       d="m 90.062249,168.61925 h 53.443581 c 4.43193,0 7.99988,3.56794 7.99988,7.99988 v 83.44359 c 0,4.43193 -3.56795,7.99988 -7.99988,7.99988 H 90.062249 c -4.431933,0 -7.999879,-3.56795 -7.999879,-7.99988 v -83.44359 c 0,-4.43194 3.567946,-7.99988 7.999879,-7.99988 z"
       style="opacity:1;fill:none;fill-opacity:1;stroke:#ffffff;stroke-width:0.5566594;stroke-miterlimit:4;stroke-dasharray:none;stroke-opacity:1" />
    <path
       id="circle1206"
       d="m 125.04968,235.64565 a 8.1628752,8.1628752 0 0 1 -8.16288,8.16287 8.1628752,8.1628752 0 0 1 -8.16287,-8.16287 8.1628752,8.1628752 0 0 1 8.16287,-8.16288 8.1628752,8.1628752 0 0 1 8.16288,8.16288 z"
       style="opacity:1;fill:none;fill-opacity:1;stroke:#ffffff;stroke-width:0.4742505;stroke-miterlimit:4;stroke-dasharray:none;stroke-opacity:1" />
    <path
       id="path1402"
       d="m 103.37924,177.18569 v -2.97717 l 0.80001,-0.009 -0.0392,-3.10985 h 25.28781 l 0.003,3.1168 0.75804,0.002 v 25.5094 l -0.75082,-0.002 -0.0101,20.66147 h -25.28781 l -0.006,-20.65041 -0.75491,-0.009 v -18.76138"
       style="opacity:1;fill:none;fill-opacity:1;stroke:#ffffff;stroke-width:0.41218996;stroke-miterlimit:4;stroke-dasharray:none;stroke-opacity:1" />
    <path
       id="rect1404"
       d="m 91.7118,180.95646 v -3.77772 l 11.63924,0.0233 0.0283,-2.99349 0.80001,-0.009 -0.0392,-3.10985 h 25.28781 l 0.003,3.11679 0.75805,0.002 v 25.50941 l -0.75084,-0.002 -0.01,20.66147 h -25.28781 l -0.006,-20.65041 -0.75491,-0.009 -0.0283,-18.77094 z"
       style="opacity:1;fill:none;fill-opacity:1;stroke:#ffffff;stroke-width:0.5;stroke-miterlimit:4;stroke-dasharray:none;stroke-opacity:1" />
    <path
       id="rect981"
       d="m 181.95348,171.08936 v 49.28781 h 25.28781 v -49.28781 l -7.75825,0.0288 c -1.10405,0.004 0.18926,-2.4989 2.26385,-2.4989 h 20.02052 c 0,0 7.55166,0.16965 7.55166,7.86559 v 83.59447 c 0,0 -0.54118,7.98328 -7.08026,7.98328 h -54.62195 c 0,0 -7.74113,-0.0194 -7.74113,-7.8185 v -84.91811 c 0,-5.10314 7.20958,-6.70673 7.20958,-6.70673 h 17.43962 c 2.03227,0 4.56382,2.45464 3.36106,2.45724 z"
       style="opacity:1;fill:none;fill-opacity:1;stroke:#ffffff;stroke-width:0.41218993;stroke-miterlimit:4;stroke-dasharray:none;stroke-opacity:1" />
    <path
       id="circle989"
       d="m 202.76027,235.56235 a 8.1628752,8.1628752 0 0 1 -8.16287,8.16287 8.1628752,8.1628752 0 0 1 -8.16288,-8.16287 8.1628752,8.1628752 0 0 1 8.16288,-8.16288 8.1628752,8.1628752 0 0 1 8.16287,8.16288 z"
       style="opacity:1;fill:none;fill-opacity:1;stroke:#ffffff;stroke-width:0.4742505;stroke-miterlimit:4;stroke-dasharray:none;stroke-opacity:1" />
    <path
       id="rect1319"
       d="m 177.76436,248.90321 h 11.38292 v 8.83853 h -11.38292 z"
       style="opacity:1;fill:none;fill-opacity:1;stroke:#ffffff;stroke-width:0.16147295;stroke-miterlimit:4;stroke-dasharray:none;stroke-opacity:1" />
    <path
       id="rect1408"
       d="m 169.45018,177.10651 h 11.61094 v 3.77772 h -11.61094 z"
       style="opacity:1;fill:none;fill-opacity:1;stroke:#ffffff;stroke-width:0.5;stroke-miterlimit:4;stroke-dasharray:none;stroke-opacity:1" />
    <path
       style="opacity:1;fill:none;fill-opacity:1;stroke:#ffffff;stroke-width:0.41218993;stroke-miterlimit:4;stroke-dasharray:none;stroke-opacity:1"
       d="m 259.6946,171.08933 v 49.28781 h 25.28781 v -49.28781 l -7.75825,0.0288 c -1.10405,0.004 0.18926,-2.4989 2.26385,-2.4989 h 20.02052 c 0,0 7.55166,0.16965 7.55166,7.86559 v 83.59447 c 0,0 -0.54118,7.98328 -7.08026,7.98328 h -54.62195 c 0,0 -7.74113,-0.0194 -7.74113,-7.8185 v -84.91811 c 0,-5.10314 7.20958,-6.70673 7.20958,-6.70673 h 17.43962 c 2.03227,0 4.56382,2.45464 3.36106,2.45724 z"
       id="path1174" />
    <path
       id="circle1176"
       d="m 280.50141,235.56232 a 8.1628752,8.1628752 0 0 1 -8.16288,8.16287 8.1628752,8.1628752 0 0 1 -8.16287,-8.16287 8.1628752,8.1628752 0 0 1 8.16287,-8.16288 8.1628752,8.1628752 0 0 1 8.16288,8.16288 z"
       style="opacity:1;fill:none;fill-opacity:1;stroke:#ffffff;stroke-width:0.4742505;stroke-miterlimit:4;stroke-dasharray:none;stroke-opacity:1" />
    <path
       id="rect1323"
       d="m 255.49626,248.90321 h 11.38292 v 8.83853 h -11.38292 z"
       style="opacity:1;fill:none;fill-opacity:1;stroke:#ffffff;stroke-width:0.16147295;stroke-miterlimit:4;stroke-dasharray:none;stroke-opacity:1" />
    <path
       id="rect1412"
       d="m 247.15384,177.10651 h 11.61093 v 3.77772 h -11.61093 z"
       style="opacity:1;fill:none;fill-opacity:1;stroke:#ffffff;stroke-width:0.5;stroke-miterlimit:4;stroke-dasharray:none;stroke-opacity:1" />
    <path
       id="rect1416"
       d="m 247.15384,177.10651 h 11.61093 v 3.77772 h -11.61093 z"
       style="opacity:1;fill:none;fill-opacity:1;stroke:#ffffff;stroke-width:0.5;stroke-miterlimit:4;stroke-dasharray:none;stroke-opacity:1" />
    <path
       id="circle1182"
       d="m 358.31476,235.56232 a 8.1628752,8.1628752 0 0 1 -8.16287,8.16287 8.1628752,8.1628752 0 0 1 -8.16288,-8.16287 8.1628752,8.1628752 0 0 1 8.16288,-8.16288 8.1628752,8.1628752 0 0 1 8.16287,8.16288 z"
       style="opacity:1;fill:none;fill-opacity:1;stroke:#ffffff;stroke-width:0.4742505;stroke-miterlimit:4;stroke-dasharray:none;stroke-opacity:1" />
    <path
       id="rect1186"
       d="m 323.43009,168.61926 h 53.44357 c 4.43194,0 7.99988,3.56795 7.99988,7.99988 v 83.44359 c 0,4.43193 -3.56794,7.99988 -7.99988,7.99988 h -53.44357 c -4.43194,0 -7.99988,-3.56795 -7.99988,-7.99988 v -83.44359 c 0,-4.43193 3.56794,-7.99988 7.99988,-7.99988 z"
       style="opacity:1;fill:none;fill-opacity:1;stroke:#ffffff;stroke-width:0.5566594;stroke-miterlimit:4;stroke-dasharray:none;stroke-opacity:1" />
    <path
       id="rect1188"
       d="m 337.50793,171.08934 h 25.28781 v 49.28781 h -25.28781 z"
       style="opacity:1;fill:none;fill-opacity:1;stroke:#ffffff;stroke-width:0.5;stroke-miterlimit:4;stroke-dasharray:none;stroke-opacity:1" />
    <path
       id="rect1327"
       d="m 333.17651,248.97546 h 11.38293 v 8.83853 h -11.38293 z"
       style="opacity:1;fill:none;fill-opacity:1;stroke:#ffffff;stroke-width:0.16147295;stroke-miterlimit:4;stroke-dasharray:none;stroke-opacity:1" />
    <path
       id="rect1420"
       d="m 325.06815,177.17876 h 11.61093 v 3.77772 h -11.61093 z"
       style="opacity:1;fill:none;fill-opacity:1;stroke:#ffffff;stroke-width:0.5;stroke-miterlimit:4;stroke-dasharray:none;stroke-opacity:1" />
  </g>
</svg>
