<?xml version="1.0" encoding="UTF-8" standalone="no"?>
<svg
   xmlns:dc="http://purl.org/dc/elements/1.1/"
   xmlns:cc="http://creativecommons.org/ns#"
   xmlns:rdf="http://www.w3.org/1999/02/22-rdf-syntax-ns#"
   xmlns:svg="http://www.w3.org/2000/svg"
   xmlns="http://www.w3.org/2000/svg"
   width="17in"
   height="11in"
   viewBox="0 0 431.80001 279.40001"
   version="1.1"
   id="svg8">
  <defs
     id="defs2" />
  <metadata
     id="metadata5">
    <rdf:RDF>
      <cc:Work
         rdf:about="">
        <dc:format>image/svg+xml</dc:format>
        <dc:type
           rdf:resource="http://purl.org/dc/dcmitype/StillImage" />
        <dc:title></dc:title>
      </cc:Work>
    </rdf:RDF>
  </metadata>
  <path
     id="rect1878"
     d="M 18.318642,167.72981 H 71.76222 c 4.431933,0 7.999879,3.56795 7.999879,7.99988 v 83.44359 c 0,4.43193 -3.567946,7.99988 -7.999879,7.99988 H 18.318642 c -4.431933,0 -7.999879,-3.56795 -7.999879,-7.99988 v -83.44359 c 0,-4.43193 3.567946,-7.99988 7.999879,-7.99988 z"
     style="opacity:1;fill:none;fill-opacity:1;stroke:#ffffff;stroke-width:0.1;stroke-miterlimit:4;stroke-dasharray:none;stroke-opacity:1" />
  <path
     id="path1880"
     d="m 19.407202,179.74309 v -4.01504 l 12.37042,0.059 0.0301,-3.21586 0.85026,-0.01 -0.0417,-3.30521 h 26.8764 l 0.003,3.31259 0.80567,0.003 v 27.11194 l -0.798,-0.003 -0.0106,21.95944 h -26.87646 l -0.006,-21.94769 -0.80232,-0.009 -0.0301,-19.94008 z"
     style="opacity:1;fill:none;fill-opacity:1;stroke:#ffffff;stroke-width:0.1;stroke-miterlimit:4;stroke-dasharray:none;stroke-opacity:1" />
  <path
     id="ellipse1882"
     d="m 16.797702,172.84763 a 1.4416475,1.4416474 0 0 1 -1.441648,1.44164 1.4416475,1.4416474 0 0 1 -1.441647,-1.44164 1.4416475,1.4416474 0 0 1 1.441647,-1.44165 1.4416475,1.4416474 0 0 1 1.441648,1.44165 z"
     style="opacity:1;fill:none;fill-opacity:1;stroke:#ffffff;stroke-width:0.1;stroke-miterlimit:4;stroke-dasharray:none;stroke-opacity:1" />
  <path
     id="ellipse1884"
     d="m 75.958074,172.84763 a 1.4416475,1.4416474 0 0 1 -1.441648,1.44164 1.4416475,1.4416474 0 0 1 -1.441647,-1.44164 1.4416475,1.4416474 0 0 1 1.441647,-1.44165 1.4416475,1.4416474 0 0 1 1.441648,1.44165 z"
     style="opacity:1;fill:none;fill-opacity:1;stroke:#ffffff;stroke-width:0.1;stroke-miterlimit:4;stroke-dasharray:none;stroke-opacity:1" />
  <path
     id="ellipse1886"
     d="m 16.797702,259.95743 a 1.4416475,1.4416474 0 0 1 -1.441648,1.44165 1.4416475,1.4416474 0 0 1 -1.441647,-1.44165 1.4416475,1.4416474 0 0 1 1.441647,-1.44165 1.4416475,1.4416474 0 0 1 1.441648,1.44165 z"
     style="opacity:1;fill:none;fill-opacity:1;stroke:#ffffff;stroke-width:0.1;stroke-miterlimit:4;stroke-dasharray:none;stroke-opacity:1" />
  <path
     id="ellipse1888"
     d="m 75.958074,259.95743 a 1.4416475,1.4416474 0 0 1 -1.441648,1.44165 1.4416475,1.4416474 0 0 1 -1.441647,-1.44165 1.4416475,1.4416474 0 0 1 1.441647,-1.44165 1.4416475,1.4416474 0 0 1 1.441648,1.44165 z"
     style="opacity:1;fill:none;fill-opacity:1;stroke:#ffffff;stroke-width:0.1;stroke-miterlimit:4;stroke-dasharray:none;stroke-opacity:1" />
  <path
     id="path1896"
     d="m 53.986372,222.97062 v 4.05472 l -0.12378,9.35947 c 0,4.87234 -3.94982,8.82216 -8.82217,8.82216 -4.87235,0 -8.82216,-3.94982 -8.82216,-8.82216 l -0.10576,-7.20742 -8.788078,0 v -6.22213 l 8.773846,0.008 z"
     style="opacity:1;fill:none;fill-opacity:1;stroke:#ffffff;stroke-width:0.1;stroke-miterlimit:4;stroke-dasharray:none;stroke-opacity:1" />
  <path
     id="rect1898"
     d="M 27.092415,249.23991 H 62.98843 v 9.06813 H 27.092415 Z"
     style="opacity:1;fill:none;fill-opacity:1;stroke:#ffffff;stroke-width:0.1;stroke-miterlimit:4;stroke-dasharray:none;stroke-opacity:1" />
  <path
     id="rect1794"
     d="M 96.255525,167.72981 H 149.6991 c 4.43194,0 7.99988,3.56795 7.99988,7.99988 v 83.44359 c 0,4.43193 -3.56794,7.99988 -7.99988,7.99988 H 96.255525 c -4.431933,0 -7.999879,-3.56795 -7.999879,-7.99988 v -83.44359 c 0,-4.43193 3.567946,-7.99988 7.999879,-7.99988 z"
     style="opacity:1;fill:none;fill-opacity:1;stroke:#ffffff;stroke-width:0.1;stroke-miterlimit:4;stroke-dasharray:none;stroke-opacity:1" />
  <path
     style="opacity:1;fill:none;fill-opacity:1;stroke:#ffffff;stroke-width:0.1;stroke-miterlimit:4;stroke-dasharray:none;stroke-opacity:1"
     d="m 97.344082,179.74309 v -4.01504 l 12.370418,0.059 0.0301,-3.21586 0.85026,-0.01 -0.0417,-3.30521 h 26.8764 l 0.003,3.31259 0.80567,0.003 v 27.11194 l -0.798,-0.003 -0.0106,21.95944 h -26.87646 l -0.006,-21.94769 -0.80232,-0.009 -0.0301,-19.94008 z"
     id="path1796" />
  <path
     id="ellipse1798"
     d="m 94.734586,172.84763 a 1.4416475,1.4416474 0 0 1 -1.441648,1.44164 1.4416475,1.4416474 0 0 1 -1.441647,-1.44164 1.4416475,1.4416474 0 0 1 1.441647,-1.44165 1.4416475,1.4416474 0 0 1 1.441648,1.44165 z"
     style="opacity:1;fill:none;fill-opacity:1;stroke:#ffffff;stroke-width:0.1;stroke-miterlimit:4;stroke-dasharray:none;stroke-opacity:1" />
  <path
     id="ellipse1800"
     d="m 153.89496,172.84763 a 1.4416475,1.4416474 0 0 1 -1.44165,1.44164 1.4416475,1.4416474 0 0 1 -1.44165,-1.44164 1.4416475,1.4416474 0 0 1 1.44165,-1.44165 1.4416475,1.4416474 0 0 1 1.44165,1.44165 z"
     style="opacity:1;fill:none;fill-opacity:1;stroke:#ffffff;stroke-width:0.1;stroke-miterlimit:4;stroke-dasharray:none;stroke-opacity:1" />
  <path
     id="ellipse1802"
     d="m 94.734586,259.95743 a 1.4416475,1.4416474 0 0 1 -1.441648,1.44165 1.4416475,1.4416474 0 0 1 -1.441647,-1.44165 1.4416475,1.4416474 0 0 1 1.441647,-1.44165 1.4416475,1.4416474 0 0 1 1.441648,1.44165 z"
     style="opacity:1;fill:none;fill-opacity:1;stroke:#ffffff;stroke-width:0.1;stroke-miterlimit:4;stroke-dasharray:none;stroke-opacity:1" />
  <path
     id="ellipse1804"
     d="m 153.89496,259.95743 a 1.4416475,1.4416474 0 0 1 -1.44165,1.44165 1.4416475,1.4416474 0 0 1 -1.44165,-1.44165 1.4416475,1.4416474 0 0 1 1.44165,-1.44165 1.4416475,1.4416474 0 0 1 1.44165,1.44165 z"
     style="opacity:1;fill:none;fill-opacity:1;stroke:#ffffff;stroke-width:0.1;stroke-miterlimit:4;stroke-dasharray:none;stroke-opacity:1" />
  <path
     id="path1874"
     d="m 131.81762,236.06047 a 8.9072456,8.9072456 0 0 1 -8.90725,8.90725 8.9072456,8.9072456 0 0 1 -8.90725,-8.90725 8.9072456,8.9072456 0 0 1 8.90725,-8.90725 8.9072456,8.9072456 0 0 1 8.90725,8.90725 z"
     style="opacity:1;fill:none;fill-opacity:1;stroke:#ffffff;stroke-width:0.1;stroke-miterlimit:4;stroke-dasharray:none;stroke-opacity:1" />
  <path
     id="rect1876"
     d="m 105.18274,222.95526 h 8.77764 v 6.22213 h -8.77764 z"
     style="opacity:1;fill:none;fill-opacity:1;stroke:#ffffff;stroke-width:0.1;stroke-miterlimit:4;stroke-dasharray:none;stroke-opacity:1" />
  <path
     id="rect2076"
     d="m 105.07893,249.19591 h 16.26871 v 9.11918 h -16.26871 z"
     style="opacity:1;fill:none;fill-opacity:1;stroke:#ffffff;stroke-width:0.09450299;stroke-miterlimit:4;stroke-dasharray:none;stroke-opacity:1" />
  <path
     id="ellipse2041"
     d="m 172.67108,172.84763 a 1.4416475,1.4416474 0 0 1 -1.44165,1.44164 1.4416475,1.4416474 0 0 1 -1.44165,-1.44164 1.4416475,1.4416474 0 0 1 1.44165,-1.44165 1.4416475,1.4416474 0 0 1 1.44165,1.44165 z"
     style="opacity:1;fill:none;fill-opacity:1;stroke:#ffffff;stroke-width:0.1;stroke-miterlimit:4;stroke-dasharray:none;stroke-opacity:1" />
  <path
     id="ellipse2043"
     d="m 231.83145,172.84763 a 1.4416475,1.4416474 0 0 1 -1.44165,1.44164 1.4416475,1.4416474 0 0 1 -1.44165,-1.44164 1.4416475,1.4416474 0 0 1 1.44165,-1.44165 1.4416475,1.4416474 0 0 1 1.44165,1.44165 z"
     style="opacity:1;fill:none;fill-opacity:1;stroke:#ffffff;stroke-width:0.1;stroke-miterlimit:4;stroke-dasharray:none;stroke-opacity:1" />
  <path
     id="ellipse2045"
     d="m 172.67108,259.95743 a 1.4416475,1.4416474 0 0 1 -1.44165,1.44165 1.4416475,1.4416474 0 0 1 -1.44165,-1.44165 1.4416475,1.4416474 0 0 1 1.44165,-1.44165 1.4416475,1.4416474 0 0 1 1.44165,1.44165 z"
     style="opacity:1;fill:none;fill-opacity:1;stroke:#ffffff;stroke-width:0.1;stroke-miterlimit:4;stroke-dasharray:none;stroke-opacity:1" />
  <path
     id="ellipse2047"
     d="m 231.83145,259.95743 a 1.4416475,1.4416474 0 0 1 -1.44165,1.44165 1.4416475,1.4416474 0 0 1 -1.44165,-1.44165 1.4416475,1.4416474 0 0 1 1.44165,-1.44165 1.4416475,1.4416474 0 0 1 1.44165,1.44165 z"
     style="opacity:1;fill:none;fill-opacity:1;stroke:#ffffff;stroke-width:0.1;stroke-miterlimit:4;stroke-dasharray:none;stroke-opacity:1" />
  <path
     id="rect2053"
     d="m 215.35632,169.22665 v 52.38082 h -26.89481 v -52.38082 l 7.53773,-0.0123 c 0.86662,0 0.32405,-1.47825 -0.61213,-1.47825 l -21.19469,-0.006 c -4.43193,-0.001 -7.99988,3.56794 -7.99988,7.99988 v 83.44362 c 0,4.43194 3.56795,7.99988 7.99988,7.99988 H 227.636 c 4.43194,0 7.99988,-3.56794 7.99988,-7.99988 v -83.44358 c 0,-4.43194 -3.56794,-8.00142 -7.99988,-7.99988 l -18.17807,0.006 c -1.06176,0 -1.90521,1.47822 -0.9514,1.47822 z"
     style="opacity:1;fill:none;fill-opacity:1;stroke:#ffffff;stroke-width:0.1;stroke-miterlimit:4;stroke-dasharray:none;stroke-opacity:1" />
  <path
     id="circle2059"
     d="m 209.75411,236.06047 a 8.9072456,8.9072456 0 0 1 -8.90725,8.90725 8.9072456,8.9072456 0 0 1 -8.90724,-8.90725 8.9072456,8.9072456 0 0 1 8.90724,-8.90725 8.9072456,8.9072456 0 0 1 8.90725,8.90725 z"
     style="opacity:1;fill:none;fill-opacity:1;stroke:#ffffff;stroke-width:0.1;stroke-miterlimit:4;stroke-dasharray:none;stroke-opacity:1" />
  <path
     id="rect2061"
     d="m 183.11923,222.95526 h 8.77765 v 6.22213 h -8.77765 z"
     style="opacity:1;fill:none;fill-opacity:1;stroke:#ffffff;stroke-width:0.1;stroke-miterlimit:4;stroke-dasharray:none;stroke-opacity:1" />
  <path
     id="rect2063"
     d="m 175.28601,175.67819 h 12.3887 v 4.0555 h -12.3887 z"
     style="opacity:1;fill:none;fill-opacity:1;stroke:#ffffff;stroke-width:0.1;stroke-miterlimit:4;stroke-dasharray:none;stroke-opacity:1" />
  <path
     id="rect2078"
     d="m 183.09566,249.19591 h 16.2687 v 9.11918 h -16.2687 z"
     style="opacity:1;fill:none;fill-opacity:1;stroke:#ffffff;stroke-width:0.09450299;stroke-miterlimit:4;stroke-dasharray:none;stroke-opacity:1" />
  <path
     id="ellipse2109"
     d="m 250.608,172.84763 a 1.4416475,1.4416474 0 0 1 -1.44165,1.44164 1.4416475,1.4416474 0 0 1 -1.44165,-1.44164 1.4416475,1.4416474 0 0 1 1.44165,-1.44165 1.4416475,1.4416474 0 0 1 1.44165,1.44165 z"
     style="opacity:1;fill:none;fill-opacity:1;stroke:#ffffff;stroke-width:0.1;stroke-miterlimit:4;stroke-dasharray:none;stroke-opacity:1" />
  <path
     id="ellipse2111"
     d="m 309.76837,172.84763 a 1.4416475,1.4416474 0 0 1 -1.44165,1.44164 1.4416475,1.4416474 0 0 1 -1.44165,-1.44164 1.4416475,1.4416474 0 0 1 1.44165,-1.44165 1.4416475,1.4416474 0 0 1 1.44165,1.44165 z"
     style="opacity:1;fill:none;fill-opacity:1;stroke:#ffffff;stroke-width:0.1;stroke-miterlimit:4;stroke-dasharray:none;stroke-opacity:1" />
  <path
     id="ellipse2113"
     d="m 250.608,259.95743 a 1.4416475,1.4416474 0 0 1 -1.44165,1.44165 1.4416475,1.4416474 0 0 1 -1.44165,-1.44165 1.4416475,1.4416474 0 0 1 1.44165,-1.44165 1.4416475,1.4416474 0 0 1 1.44165,1.44165 z"
     style="opacity:1;fill:none;fill-opacity:1;stroke:#ffffff;stroke-width:0.1;stroke-miterlimit:4;stroke-dasharray:none;stroke-opacity:1" />
  <path
     id="ellipse2115"
     d="m 309.76837,259.95743 a 1.4416475,1.4416474 0 0 1 -1.44165,1.44165 1.4416475,1.4416474 0 0 1 -1.44165,-1.44165 1.4416475,1.4416474 0 0 1 1.44165,-1.44165 1.4416475,1.4416474 0 0 1 1.44165,1.44165 z"
     style="opacity:1;fill:none;fill-opacity:1;stroke:#ffffff;stroke-width:0.1;stroke-miterlimit:4;stroke-dasharray:none;stroke-opacity:1" />
  <path
     style="opacity:1;fill:none;fill-opacity:1;stroke:#ffffff;stroke-width:0.1;stroke-miterlimit:4;stroke-dasharray:none;stroke-opacity:1"
     d="m 293.29324,169.22665 v 52.38082 h -26.89481 v -52.38082 l 7.53773,-0.0123 c 0.86662,0 0.32405,-1.47825 -0.61213,-1.47825 l -21.19469,-0.006 c -4.43193,-0.001 -7.99988,3.56794 -7.99988,7.99988 v 83.44362 c 0,4.43194 3.56795,7.99988 7.99988,7.99988 h 53.44358 c 4.43194,0 7.99988,-3.56794 7.99988,-7.99988 v -83.44358 c 0,-4.43194 -3.56794,-8.00142 -7.99988,-7.99988 l -18.17807,0.006 c -1.06176,0 -1.90521,1.47822 -0.9514,1.47822 z"
     id="path2121" />
  <path
     id="circle2123"
     d="m 287.69103,236.06047 a 8.9072456,8.9072456 0 0 1 -8.90725,8.90725 8.9072456,8.9072456 0 0 1 -8.90724,-8.90725 8.9072456,8.9072456 0 0 1 8.90724,-8.90725 8.9072456,8.9072456 0 0 1 8.90725,8.90725 z"
     style="opacity:1;fill:none;fill-opacity:1;stroke:#ffffff;stroke-width:0.1;stroke-miterlimit:4;stroke-dasharray:none;stroke-opacity:1" />
  <path
     id="rect2125"
     d="m 261.05615,222.95526 h 8.77765 v 6.22213 h -8.77765 z"
     style="opacity:1;fill:none;fill-opacity:1;stroke:#ffffff;stroke-width:0.1;stroke-miterlimit:4;stroke-dasharray:none;stroke-opacity:1" />
  <path
     id="rect2127"
     d="m 253.22293,175.67819 h 12.3887 v 4.0555 h -12.3887 z"
     style="opacity:1;fill:none;fill-opacity:1;stroke:#ffffff;stroke-width:0.1;stroke-miterlimit:4;stroke-dasharray:none;stroke-opacity:1" />
  <path
     id="rect2129"
     d="m 261.03256,249.19591 h 16.26871 v 9.11918 h -16.26871 z"
     style="opacity:1;fill:none;fill-opacity:1;stroke:#ffffff;stroke-width:0.09450299;stroke-miterlimit:4;stroke-dasharray:none;stroke-opacity:1" />
  <path
     id="rect2131"
     d="m 330.06619,167.7298 h 53.44358 c 4.43194,0 7.99988,3.56794 7.99988,7.99988 v 83.44358 c 0,4.43194 -3.56794,7.99988 -7.99988,7.99988 h -53.44358 c -4.43193,0 -7.99988,-3.56794 -7.99988,-7.99988 v -83.44358 c 0,-4.43194 3.56795,-7.99988 7.99988,-7.99988 z"
     style="opacity:1;fill:none;fill-opacity:1;stroke:#ffffff;stroke-width:0.1;stroke-miterlimit:4;stroke-dasharray:none;stroke-opacity:1" />
  <path
     id="ellipse2133"
     d="m 328.54529,172.84763 a 1.4416475,1.4416474 0 0 1 -1.44165,1.44164 1.4416475,1.4416474 0 0 1 -1.44165,-1.44164 1.4416475,1.4416474 0 0 1 1.44165,-1.44165 1.4416475,1.4416474 0 0 1 1.44165,1.44165 z"
     style="opacity:1;fill:none;fill-opacity:1;stroke:#ffffff;stroke-width:0.1;stroke-miterlimit:4;stroke-dasharray:none;stroke-opacity:1" />
  <path
     id="ellipse2135"
     d="m 387.70562,172.84763 a 1.4416475,1.4416474 0 0 1 -1.44164,1.44164 1.4416475,1.4416474 0 0 1 -1.44165,-1.44164 1.4416475,1.4416474 0 0 1 1.44165,-1.44165 1.4416475,1.4416474 0 0 1 1.44164,1.44165 z"
     style="opacity:1;fill:none;fill-opacity:1;stroke:#ffffff;stroke-width:0.1;stroke-miterlimit:4;stroke-dasharray:none;stroke-opacity:1" />
  <path
     id="ellipse2137"
     d="m 328.54529,259.9574 a 1.4416475,1.4416474 0 0 1 -1.44165,1.44164 1.4416475,1.4416474 0 0 1 -1.44165,-1.44164 1.4416475,1.4416474 0 0 1 1.44165,-1.44165 1.4416475,1.4416474 0 0 1 1.44165,1.44165 z"
     style="opacity:1;fill:none;fill-opacity:1;stroke:#ffffff;stroke-width:0.1;stroke-miterlimit:4;stroke-dasharray:none;stroke-opacity:1" />
  <path
     id="ellipse2139"
     d="m 387.70562,259.9574 a 1.4416475,1.4416474 0 0 1 -1.44164,1.44164 1.4416475,1.4416474 0 0 1 -1.44165,-1.44164 1.4416475,1.4416474 0 0 1 1.44165,-1.44165 1.4416475,1.4416474 0 0 1 1.44164,1.44165 z"
     style="opacity:1;fill:none;fill-opacity:1;stroke:#ffffff;stroke-width:0.1;stroke-miterlimit:4;stroke-dasharray:none;stroke-opacity:1" />
  <path
     id="rect2145"
     d="m 344.33569,169.22664 h 26.89481 v 52.38082 h -26.89481 z"
     style="opacity:1;fill:none;fill-opacity:1;stroke:#ffffff;stroke-width:0.1;stroke-miterlimit:4;stroke-dasharray:none;stroke-opacity:1" />
  <path
     id="circle2147"
     d="m 365.62828,236.06046 a 8.9072456,8.9072456 0 0 1 -8.90724,8.90724 8.9072456,8.9072456 0 0 1 -8.90725,-8.90724 8.9072456,8.9072456 0 0 1 8.90725,-8.90725 8.9072456,8.9072456 0 0 1 8.90724,8.90725 z"
     style="opacity:1;fill:none;fill-opacity:1;stroke:#ffffff;stroke-width:0.1;stroke-miterlimit:4;stroke-dasharray:none;stroke-opacity:1" />
  <path
     id="rect2149"
     d="m 338.99341,222.95525 h 8.77764 v 6.22212 h -8.77764 z"
     style="opacity:1;fill:none;fill-opacity:1;stroke:#ffffff;stroke-width:0.1;stroke-miterlimit:4;stroke-dasharray:none;stroke-opacity:1" />
  <path
     id="rect2151"
     d="m 331.16019,175.67818 h 12.3887 v 4.05549 h -12.3887 z"
     style="opacity:1;fill:none;fill-opacity:1;stroke:#ffffff;stroke-width:0.1;stroke-miterlimit:4;stroke-dasharray:none;stroke-opacity:1" />
  <path
     id="rect2153"
     d="m 338.96985,249.19591 h 16.2687 v 9.11918 h -16.2687 z"
     style="opacity:1;fill:none;fill-opacity:1;stroke:#ffffff;stroke-width:0.09450299;stroke-miterlimit:4;stroke-dasharray:none;stroke-opacity:1" />
</svg>
