<?xml version="1.0" encoding="UTF-8" standalone="no"?>
<svg
   xmlns:dc="http://purl.org/dc/elements/1.1/"
   xmlns:cc="http://creativecommons.org/ns#"
   xmlns:rdf="http://www.w3.org/1999/02/22-rdf-syntax-ns#"
   xmlns:svg="http://www.w3.org/2000/svg"
   xmlns="http://www.w3.org/2000/svg"
   xmlns:sodipodi="http://sodipodi.sourceforge.net/DTD/sodipodi-0.dtd"
   xmlns:inkscape="http://www.inkscape.org/namespaces/inkscape"
   id="svg8"
   version="1.1"
   viewBox="0 0 431.80001 279.40001"
   height="11in"
   width="17in"
   sodipodi:docname="lasercutDis_acrylicDial.svg"
   inkscape:version="0.92.3 (2405546, 2018-03-11)">
  <sodipodi:namedview
     pagecolor="#414141"
     bordercolor="#666666"
     borderopacity="1"
     objecttolerance="10"
     gridtolerance="10"
     guidetolerance="10"
     inkscape:pageopacity="0"
     inkscape:pageshadow="2"
     inkscape:window-width="960"
     inkscape:window-height="1043"
     id="namedview29"
     showgrid="false"
     inkscape:zoom="0.49387255"
     inkscape:cx="689.71992"
     inkscape:cy="424.69752"
     inkscape:window-x="960"
     inkscape:window-y="0"
     inkscape:window-maximized="0"
     inkscape:current-layer="svg8" />
  <defs
     id="defs2" />
  <metadata
     id="metadata5">
    <rdf:RDF>
      <cc:Work
         rdf:about="">
        <dc:format>image/svg+xml</dc:format>
        <dc:type
           rdf:resource="http://purl.org/dc/dcmitype/StillImage" />
        <dc:title></dc:title>
      </cc:Work>
    </rdf:RDF>
  </metadata>
  <path
     style="opacity:1;fill:none;fill-opacity:1;stroke:#ffffff;stroke-width:0.1;stroke-miterlimit:4;stroke-dasharray:none;stroke-opacity:1"
     d="m 197.60057,164.33383 a 30.030209,30.030209 0 0 1 -30.03021,30.03021 30.030209,30.030209 0 0 1 -30.03021,-30.03021 30.030209,30.030209 0 0 1 30.03021,-30.03021 30.030209,30.030209 0 0 1 30.03021,30.03021 z"
     id="circle1614" />
  <path
     style="opacity:1;fill:none;fill-opacity:1;stroke:#ffffff;stroke-width:0.04355732;stroke-miterlimit:4;stroke-dasharray:none;stroke-opacity:1"
     d="m 170.54858,164.33383 a 2.9782214,2.9782214 0 0 1 -2.97822,2.97822 2.9782214,2.9782214 0 0 1 -2.97822,-2.97822 2.9782214,2.9782214 0 0 1 2.97822,-2.97822 2.9782214,2.9782214 0 0 1 2.97822,2.97822 z"
     id="path1665" />
  <path
     style="opacity:1;fill:none;fill-opacity:1;stroke:#ffffff;stroke-width:0.0917104;stroke-miterlimit:4;stroke-dasharray:none;stroke-opacity:1"
     d="m 214.03779,190.263 a 5.2435837,5.2435837 0 0 1 -5.24359,5.24358 5.2435837,5.2435837 0 0 1 -5.24358,-5.24358 5.2435837,5.2435837 0 0 1 5.24358,-5.24358 5.2435837,5.2435837 0 0 1 5.24359,5.24358 z"
     id="circle1800" />
  <path
     style="opacity:1;fill:none;fill-opacity:1;stroke:#ffffff;stroke-width:0.0917104;stroke-miterlimit:4;stroke-dasharray:none;stroke-opacity:1"
     d="m 232.23356,190.263 a 5.2435837,5.2435837 0 0 1 -5.24359,5.24358 5.2435837,5.2435837 0 0 1 -5.24358,-5.24358 5.2435837,5.2435837 0 0 1 5.24358,-5.24358 5.2435837,5.2435837 0 0 1 5.24359,5.24358 z"
     id="circle1802" />
  <path
     style="opacity:1;fill:none;fill-opacity:1;stroke:#ffffff;stroke-width:0.06453477;stroke-miterlimit:4;stroke-dasharray:none;stroke-opacity:1"
     d="m 237.13089,191.18185 a 19.379927,19.379927 0 0 1 -19.37993,19.37993 19.379927,19.379927 0 0 1 -19.37993,-19.37993 19.379927,19.379927 0 0 1 19.37993,-19.37992 19.379927,19.379927 0 0 1 19.37993,19.37992 z"
     id="circle1767" />
  <path
     sodipodi:nodetypes="csssccscc"
     inkscape:connector-curvature="0"
     id="path1769"
     d="m 214.87396,166.19902 c -12.49689,1.42868 -22.20155,12.03872 -22.20155,24.91539 0,13.85052 11.22807,25.07859 25.07859,25.07859 13.85053,0 25.07859,-11.22807 25.07859,-25.07859 0,-12.8781 -9.7068,-23.48906 -22.20363,-24.91663 l 0.007,-4.94106 c -0.94458,-0.0587 -1.90764,-0.10507 -2.88153,-0.10507 -0.97502,0 -1.93919,0.0465 -2.88235,0.10459 z"
     style="opacity:1;fill:none;fill-opacity:1;stroke:#ffffff;stroke-width:0.1;stroke-miterlimit:4;stroke-dasharray:none;stroke-opacity:1" />
  <path
     style="opacity:1;fill:none;fill-opacity:1;stroke:#ffffff;stroke-width:0.1;stroke-miterlimit:4;stroke-dasharray:none;stroke-opacity:1"
     d="m 201.8339,226.24634 a 30.030209,30.030209 0 0 1 -30.0302,30.03021 30.030209,30.030209 0 0 1 -30.03021,-30.03021 30.030209,30.030209 0 0 1 30.03021,-30.03021 30.030209,30.030209 0 0 1 30.0302,30.03021 z"
     id="circle1796" />
  <path
     style="opacity:1;fill:none;fill-opacity:1;stroke:#ffffff;stroke-width:0.04355732;stroke-miterlimit:4;stroke-dasharray:none;stroke-opacity:1"
     d="m 174.78192,226.24634 a 2.9782214,2.9782214 0 0 1 -2.97822,2.97822 2.9782214,2.9782214 0 0 1 -2.97823,-2.97822 2.9782214,2.9782214 0 0 1 2.97823,-2.97822 2.9782214,2.9782214 0 0 1 2.97822,2.97822 z"
     id="circle1798" />
</svg>
