<?xml version="1.0" encoding="UTF-8" standalone="no"?>
<svg
   xmlns:dc="http://purl.org/dc/elements/1.1/"
   xmlns:cc="http://creativecommons.org/ns#"
   xmlns:rdf="http://www.w3.org/1999/02/22-rdf-syntax-ns#"
   xmlns:svg="http://www.w3.org/2000/svg"
   xmlns="http://www.w3.org/2000/svg"
   width="17in"
   height="11in"
   viewBox="0 0 431.80001 279.40001"
   version="1.1"
   id="svg8">
  <defs
     id="defs2" />
  <metadata
     id="metadata5">
    <rdf:RDF>
      <cc:Work
         rdf:about="">
        <dc:format>image/svg+xml</dc:format>
        <dc:type
           rdf:resource="http://purl.org/dc/dcmitype/StillImage" />
        <dc:title></dc:title>
      </cc:Work>
    </rdf:RDF>
  </metadata>
  <path
     id="ellipse1552"
     d="m 63.903192,175.3299 a 1.4416475,1.4416474 0 0 1 -1.441648,1.44164 1.4416475,1.4416474 0 0 1 -1.441647,-1.44164 1.4416475,1.4416474 0 0 1 1.441647,-1.44165 1.4416475,1.4416474 0 0 1 1.441648,1.44165 z"
     style="opacity:1;fill:none;fill-opacity:1;stroke:#ffffff;stroke-width:0.1;stroke-miterlimit:4;stroke-dasharray:none;stroke-opacity:1" />
  <path
     id="ellipse1554"
     d="m 123.06355,175.3299 a 1.4416475,1.4416474 0 0 1 -1.44165,1.44164 1.4416475,1.4416474 0 0 1 -1.44165,-1.44164 1.4416475,1.4416474 0 0 1 1.44165,-1.44165 1.4416475,1.4416474 0 0 1 1.44165,1.44165 z"
     style="opacity:1;fill:none;fill-opacity:1;stroke:#ffffff;stroke-width:0.1;stroke-miterlimit:4;stroke-dasharray:none;stroke-opacity:1" />
  <path
     id="ellipse1556"
     d="m 63.903192,262.4397 a 1.4416475,1.4416474 0 0 1 -1.441648,1.44164 1.4416475,1.4416474 0 0 1 -1.441647,-1.44164 1.4416475,1.4416474 0 0 1 1.441647,-1.44165 1.4416475,1.4416474 0 0 1 1.441648,1.44165 z"
     style="opacity:1;fill:none;fill-opacity:1;stroke:#ffffff;stroke-width:0.1;stroke-miterlimit:4;stroke-dasharray:none;stroke-opacity:1" />
  <path
     id="ellipse1558"
     d="m 123.06355,262.4397 a 1.4416475,1.4416474 0 0 1 -1.44165,1.44164 1.4416475,1.4416474 0 0 1 -1.44165,-1.44164 1.4416475,1.4416474 0 0 1 1.44165,-1.44165 1.4416475,1.4416474 0 0 1 1.44165,1.44165 z"
     style="opacity:1;fill:none;fill-opacity:1;stroke:#ffffff;stroke-width:0.1;stroke-miterlimit:4;stroke-dasharray:none;stroke-opacity:1" />
  <path
     id="rect1560"
     d="m 65.424115,170.21208 h 53.443575 c 4.43194,0 7.99988,3.56795 7.99988,7.99988 v 83.44359 c 0,4.43193 -3.56794,7.99988 -7.99988,7.99988 H 65.424115 c -4.431933,0 -7.999879,-3.56795 -7.999879,-7.99988 v -83.44359 c 0,-4.43193 3.567946,-7.99988 7.999879,-7.99988 z"
     style="opacity:1;fill:none;fill-opacity:1;stroke:#ffffff;stroke-width:0.1;stroke-miterlimit:4;stroke-dasharray:none;stroke-opacity:1" />
  <path
     id="circle1566"
     d="m 100.69151,188.5183 a 8.7545633,8.7545633 0 0 1 -8.754567,8.75456 8.7545633,8.7545633 0 0 1 -8.754563,-8.75456 8.7545633,8.7545633 0 0 1 8.754563,-8.75457 8.7545633,8.7545633 0 0 1 8.754567,8.75457 z"
     style="opacity:1;fill:none;fill-opacity:1;stroke:#ffffff;stroke-width:0.10724853;stroke-miterlimit:4;stroke-dasharray:none;stroke-opacity:1" />
  <path
     id="ellipse1568"
     d="m 63.903192,175.3299 a 1.4416475,1.4416474 0 0 1 -1.441648,1.44164 1.4416475,1.4416474 0 0 1 -1.441647,-1.44164 1.4416475,1.4416474 0 0 1 1.441647,-1.44165 1.4416475,1.4416474 0 0 1 1.441648,1.44165 z"
     style="opacity:1;fill:none;fill-opacity:1;stroke:#ffffff;stroke-width:0.1;stroke-miterlimit:4;stroke-dasharray:none;stroke-opacity:1" />
  <path
     id="ellipse1570"
     d="m 123.06355,175.3299 a 1.4416475,1.4416474 0 0 1 -1.44165,1.44164 1.4416475,1.4416474 0 0 1 -1.44165,-1.44164 1.4416475,1.4416474 0 0 1 1.44165,-1.44165 1.4416475,1.4416474 0 0 1 1.44165,1.44165 z"
     style="opacity:1;fill:none;fill-opacity:1;stroke:#ffffff;stroke-width:0.1;stroke-miterlimit:4;stroke-dasharray:none;stroke-opacity:1" />
  <path
     id="ellipse1572"
     d="m 63.903192,262.4397 a 1.4416475,1.4416474 0 0 1 -1.441648,1.44164 1.4416475,1.4416474 0 0 1 -1.441647,-1.44164 1.4416475,1.4416474 0 0 1 1.441647,-1.44165 1.4416475,1.4416474 0 0 1 1.441648,1.44165 z"
     style="opacity:1;fill:none;fill-opacity:1;stroke:#ffffff;stroke-width:0.1;stroke-miterlimit:4;stroke-dasharray:none;stroke-opacity:1" />
  <path
     id="ellipse1574"
     d="m 123.06355,262.4397 a 1.4416475,1.4416474 0 0 1 -1.44165,1.44164 1.4416475,1.4416474 0 0 1 -1.44165,-1.44164 1.4416475,1.4416474 0 0 1 1.44165,-1.44165 1.4416475,1.4416474 0 0 1 1.44165,1.44165 z"
     style="opacity:1;fill:none;fill-opacity:1;stroke:#ffffff;stroke-width:0.1;stroke-miterlimit:4;stroke-dasharray:none;stroke-opacity:1" />
  <path
     id="circle1580"
     d="m 95.911892,237.00319 a 3.5780833,3.5780833 0 0 1 -3.578083,3.57808 3.5780833,3.5780833 0 0 1 -3.578083,-3.57808 3.5780833,3.5780833 0 0 1 3.578083,-3.57808 3.5780833,3.5780833 0 0 1 3.578083,3.57808 z"
     style="opacity:1;fill:none;fill-opacity:1;stroke:#ffffff;stroke-width:0.04383361;stroke-miterlimit:4;stroke-dasharray:none;stroke-opacity:1" />
  <path
     id="rect1584"
     d="m 85.813841,249.89267 h 12.002632 c 2.176589,0 3.928857,1.75227 3.928857,3.92886 v 0.88701 c 0,2.17659 -1.752268,3.92886 -3.928857,3.92886 H 85.813841 c -2.176589,0 -3.928862,-1.75227 -3.928862,-3.92886 v -0.88701 c 0,-2.17659 1.752273,-3.92886 3.928862,-3.92886 z"
     style="opacity:1;fill:none;fill-opacity:1;stroke:#ffffff;stroke-width:0.07595419;stroke-miterlimit:4;stroke-dasharray:none;stroke-opacity:1" />
</svg>
