<?xml version="1.0" encoding="UTF-8" standalone="no"?>
<svg
   xmlns:dc="http://purl.org/dc/elements/1.1/"
   xmlns:cc="http://creativecommons.org/ns#"
   xmlns:rdf="http://www.w3.org/1999/02/22-rdf-syntax-ns#"
   xmlns:svg="http://www.w3.org/2000/svg"
   xmlns="http://www.w3.org/2000/svg"
   xmlns:sodipodi="http://sodipodi.sourceforge.net/DTD/sodipodi-0.dtd"
   xmlns:inkscape="http://www.inkscape.org/namespaces/inkscape"
   id="svg8"
   version="1.1"
   viewBox="0 0 431.80001 279.40001"
   height="11in"
   width="17in"
   sodipodi:docname="lasercutDis.svg"
   inkscape:version="0.92.3 (2405546, 2018-03-11)">
  <sodipodi:namedview
     pagecolor="#414141"
     bordercolor="#666666"
     borderopacity="1"
     objecttolerance="10"
     gridtolerance="10"
     guidetolerance="10"
     inkscape:pageopacity="0"
     inkscape:pageshadow="2"
     inkscape:window-width="1920"
     inkscape:window-height="1043"
     id="namedview29"
     showgrid="false"
     inkscape:zoom="0.63211061"
     inkscape:cx="883.99864"
     inkscape:cy="338.04738"
     inkscape:window-x="0"
     inkscape:window-y="0"
     inkscape:window-maximized="1"
     inkscape:current-layer="svg8" />
  <defs
     id="defs2" />
  <metadata
     id="metadata5">
    <rdf:RDF>
      <cc:Work
         rdf:about="">
        <dc:format>image/svg+xml</dc:format>
        <dc:type
           rdf:resource="http://purl.org/dc/dcmitype/StillImage" />
        <dc:title></dc:title>
      </cc:Work>
    </rdf:RDF>
  </metadata>
  <path
     inkscape:connector-curvature="0"
     id="path957"
     d="m 47.293128,235.38366 c 0,4.53155 -3.673551,8.2051 -8.205104,8.2051 -4.531552,0 -8.205103,-3.67355 -8.205103,-8.2051 l -0.11513,-8.70483 v -3.77111 h 16.640458 v 3.77111 z"
     style="opacity:1;fill:none;fill-opacity:1;stroke:#ffffff;stroke-width:0.48079696;stroke-miterlimit:4;stroke-dasharray:none;stroke-opacity:1" />
  <path
     inkscape:connector-curvature="0"
     style="opacity:1;fill:none;fill-opacity:1;stroke:#ffffff;stroke-width:0.28083023;stroke-miterlimit:4;stroke-dasharray:none;stroke-opacity:1"
     d="m 22.295976,248.92981 h 34.707665 v 8.76791 H 22.295976 Z"
     id="rect973" />
  <path
     inkscape:connector-curvature="0"
     style="opacity:1;fill:none;fill-opacity:1;stroke:#ffffff;stroke-width:0.55967456;stroke-miterlimit:4;stroke-dasharray:none;stroke-opacity:1"
     d="M 12.221494,168.07911 H 65.95455 c 4.455938,0 8.043209,3.58726 8.043209,8.04321 v 83.89556 c 0,4.45594 -3.587271,8.04321 -8.043209,8.04321 H 12.221494 c -4.4559388,0 -8.0432105,-3.58727 -8.0432105,-8.04321 v -83.89556 c 0,-4.45595 3.5872717,-8.04321 8.0432105,-8.04321 z"
     id="rect1127" />
  <path
     inkscape:connector-curvature="0"
     style="opacity:1;fill:none;fill-opacity:1;stroke:#ffffff;stroke-width:0.50270826;stroke-miterlimit:4;stroke-dasharray:none;stroke-opacity:1"
     d="m 13.879981,180.48314 v -3.79818 l 11.702274,0.0559 0.02845,-3.04216 0.804343,-0.009 -0.03941,-3.1267 h 25.424778 l 0.0028,3.13368 0.762151,0.002 v 25.64758 l -0.754891,-0.002 -0.01005,20.77339 H 26.375649 l -0.006,-20.76227 -0.758989,-0.009 -0.02845,-18.8631 z"
     id="rect1400" />
  <path
     inkscape:connector-curvature="0"
     style="opacity:1;fill:none;fill-opacity:1;stroke:#ffffff;stroke-width:0.16234758;stroke-miterlimit:4;stroke-dasharray:none;stroke-opacity:1"
     d="m 100.54421,248.87056 h 11.44459 v 8.8864 h -11.44459 z"
     id="rect1311" />
  <path
     inkscape:connector-curvature="0"
     style="opacity:1;fill:none;fill-opacity:1;stroke:#ffffff;stroke-width:0.55967456;stroke-miterlimit:4;stroke-dasharray:none;stroke-opacity:1"
     d="m 90.528955,168.07911 h 53.733055 c 4.45594,0 8.04321,3.58726 8.04321,8.04321 v 83.89556 c 0,4.45594 -3.58727,8.04321 -8.04321,8.04321 H 90.528955 c -4.455938,0 -8.04321,-3.58727 -8.04321,-8.04321 v -83.89556 c 0,-4.45595 3.587272,-8.04321 8.04321,-8.04321 z"
     id="rect1313" />
  <path
     inkscape:connector-curvature="0"
     style="opacity:1;fill:none;fill-opacity:1;stroke:#ffffff;stroke-width:0.47681928;stroke-miterlimit:4;stroke-dasharray:none;stroke-opacity:1"
     d="m 125.7059,235.46856 a 8.2070894,8.2070894 0 0 1 -8.2071,8.20708 8.2070894,8.2070894 0 0 1 -8.20708,-8.20708 8.2070894,8.2070894 0 0 1 8.20708,-8.2071 8.2070894,8.2070894 0 0 1 8.2071,8.2071 z"
     id="circle1206" />
  <path
     inkscape:connector-curvature="0"
     style="opacity:1;fill:none;fill-opacity:1;stroke:#ffffff;stroke-width:0.4144226;stroke-miterlimit:4;stroke-dasharray:none;stroke-opacity:1"
     d="m 103.91808,176.69195 v -2.9933 l 0.80434,-0.009 -0.0394,-3.12669 h 25.42478 l 0.003,3.13368 0.76214,0.002 v 25.64757 l -0.75488,-0.002 -0.0102,20.77338 h -25.42478 l -0.006,-20.76226 -0.759,-0.009 v -18.863"
     id="path1402" />
  <path
     inkscape:connector-curvature="0"
     style="opacity:1;fill:none;fill-opacity:1;stroke:#ffffff;stroke-width:0.50270826;stroke-miterlimit:4;stroke-dasharray:none;stroke-opacity:1"
     d="m 92.187441,180.48314 v -3.79818 l 11.702279,0.0234 0.0285,-3.00971 0.80434,-0.009 -0.0394,-3.12669 h 25.42478 l 0.003,3.13367 0.76215,0.002 v 25.64758 l -0.7549,-0.002 -0.0101,20.77339 h -25.42478 l -0.006,-20.76227 -0.759,-0.009 -0.0284,-18.87261 z"
     id="rect1404" />
  <path
     inkscape:connector-curvature="0"
     style="opacity:1;fill:none;fill-opacity:1;stroke:#ffffff;stroke-width:0.41442257;stroke-miterlimit:4;stroke-dasharray:none;stroke-opacity:1"
     d="m 182.91792,170.5626 v 49.55477 H 208.3427 V 170.5626 l -7.80028,0.029 c -1.11003,0.004 0.19029,-2.51243 2.27612,-2.51243 h 20.12896 c 0,0 7.59256,0.17057 7.59256,7.90819 v 84.04726 c 0,0 -0.54411,8.02652 -7.11861,8.02652 h -54.91781 c 0,0 -7.78306,-0.0195 -7.78306,-7.86085 v -85.37807 c 0,-5.13078 7.24863,-6.74305 7.24863,-6.74305 h 17.53408 c 2.04328,0 4.58854,2.46793 3.37927,2.47055 z"
     id="rect981" />
  <path
     inkscape:connector-curvature="0"
     style="opacity:1;fill:none;fill-opacity:1;stroke:#ffffff;stroke-width:0.47681928;stroke-miterlimit:4;stroke-dasharray:none;stroke-opacity:1"
     d="m 203.83741,235.3848 a 8.2070894,8.2070894 0 0 1 -8.20709,8.20709 8.2070894,8.2070894 0 0 1 -8.20709,-8.20709 8.2070894,8.2070894 0 0 1 8.20709,-8.20709 8.2070894,8.2070894 0 0 1 8.20709,8.20709 z"
     id="circle989" />
  <path
     inkscape:connector-curvature="0"
     style="opacity:1;fill:none;fill-opacity:1;stroke:#ffffff;stroke-width:0.16234757;stroke-miterlimit:4;stroke-dasharray:none;stroke-opacity:1"
     d="m 178.7061,248.79793 h 11.44458 v 8.8864 H 178.7061 Z"
     id="rect1319" />
  <path
     inkscape:connector-curvature="0"
     style="opacity:1;fill:none;fill-opacity:1;stroke:#ffffff;stroke-width:0.50270826;stroke-miterlimit:4;stroke-dasharray:none;stroke-opacity:1"
     d="m 170.34689,176.61234 h 11.67383 v 3.79818 h -11.67383 z"
     id="rect1408" />
  <path
     inkscape:connector-curvature="0"
     id="path1174"
     d="m 261.08012,170.56257 v 49.55477 h 25.42478 v -49.55477 l -7.80027,0.029 c -1.11003,0.004 0.19028,-2.51243 2.27611,-2.51243 h 20.12896 c 0,0 7.59257,0.17057 7.59257,7.90819 v 84.04726 c 0,0 -0.54412,8.02652 -7.11861,8.02652 h -54.91781 c 0,0 -7.78306,-0.0195 -7.78306,-7.86085 v -85.37807 c 0,-5.13078 7.24863,-6.74305 7.24863,-6.74305 h 17.53408 c 2.04328,0 4.58854,2.46793 3.37926,2.47055 z"
     style="opacity:1;fill:none;fill-opacity:1;stroke:#ffffff;stroke-width:0.41442257;stroke-miterlimit:4;stroke-dasharray:none;stroke-opacity:1" />
  <path
     inkscape:connector-curvature="0"
     style="opacity:1;fill:none;fill-opacity:1;stroke:#ffffff;stroke-width:0.47681928;stroke-miterlimit:4;stroke-dasharray:none;stroke-opacity:1"
     d="m 281.99963,235.38477 a 8.2070894,8.2070894 0 0 1 -8.20709,8.20709 8.2070894,8.2070894 0 0 1 -8.20709,-8.20709 8.2070894,8.2070894 0 0 1 8.20709,-8.20709 8.2070894,8.2070894 0 0 1 8.20709,8.20709 z"
     id="circle1176" />
  <path
     inkscape:connector-curvature="0"
     style="opacity:1;fill:none;fill-opacity:1;stroke:#ffffff;stroke-width:0.16234757;stroke-miterlimit:4;stroke-dasharray:none;stroke-opacity:1"
     d="m 256.85904,248.79793 h 11.44458 v 8.8864 h -11.44458 z"
     id="rect1323" />
  <path
     inkscape:connector-curvature="0"
     style="opacity:1;fill:none;fill-opacity:1;stroke:#ffffff;stroke-width:0.50270826;stroke-miterlimit:4;stroke-dasharray:none;stroke-opacity:1"
     d="m 248.47143,176.61234 h 11.67382 v 3.79818 h -11.67382 z"
     id="rect1412" />
  <path
     inkscape:connector-curvature="0"
     style="opacity:1;fill:none;fill-opacity:1;stroke:#ffffff;stroke-width:0.50270826;stroke-miterlimit:4;stroke-dasharray:none;stroke-opacity:1"
     d="m 248.47143,176.61234 h 11.67382 v 3.79818 h -11.67382 z"
     id="rect1416" />
  <path
     inkscape:connector-curvature="0"
     style="opacity:1;fill:none;fill-opacity:1;stroke:#ffffff;stroke-width:0.47681928;stroke-miterlimit:4;stroke-dasharray:none;stroke-opacity:1"
     d="m 360.23446,235.38477 a 8.2070894,8.2070894 0 0 1 -8.20709,8.20709 8.2070894,8.2070894 0 0 1 -8.20709,-8.20709 8.2070894,8.2070894 0 0 1 8.20709,-8.20709 8.2070894,8.2070894 0 0 1 8.20709,8.20709 z"
     id="circle1182" />
  <path
     inkscape:connector-curvature="0"
     style="opacity:1;fill:none;fill-opacity:1;stroke:#ffffff;stroke-width:0.55967456;stroke-miterlimit:4;stroke-dasharray:none;stroke-opacity:1"
     d="m 325.16083,168.07912 h 53.73305 c 4.45595,0 8.04321,3.58727 8.04321,8.04321 v 83.89556 c 0,4.45594 -3.58726,8.04321 -8.04321,8.04321 h -53.73305 c -4.45594,0 -8.04321,-3.58727 -8.04321,-8.04321 v -83.89556 c 0,-4.45594 3.58727,-8.04321 8.04321,-8.04321 z"
     id="rect1186" />
  <path
     inkscape:connector-curvature="0"
     style="opacity:1;fill:none;fill-opacity:1;stroke:#ffffff;stroke-width:0.50270826;stroke-miterlimit:4;stroke-dasharray:none;stroke-opacity:1"
     d="m 339.31493,170.56258 h 25.42478 v 49.55477 h -25.42478 z"
     id="rect1188" />
  <path
     inkscape:connector-curvature="0"
     style="opacity:1;fill:none;fill-opacity:1;stroke:#ffffff;stroke-width:0.16234757;stroke-miterlimit:4;stroke-dasharray:none;stroke-opacity:1"
     d="m 334.96004,248.87057 h 11.44459 v 8.8864 h -11.44459 z"
     id="rect1327" />
  <path
     inkscape:connector-curvature="0"
     style="opacity:1;fill:none;fill-opacity:1;stroke:#ffffff;stroke-width:0.50270826;stroke-miterlimit:4;stroke-dasharray:none;stroke-opacity:1"
     d="m 326.80777,176.68498 h 11.67382 v 3.79818 h -11.67382 z"
     id="rect1420" />
</svg>
