<?xml version="1.0" encoding="UTF-8" standalone="no"?>
<svg
   xmlns:dc="http://purl.org/dc/elements/1.1/"
   xmlns:cc="http://creativecommons.org/ns#"
   xmlns:rdf="http://www.w3.org/1999/02/22-rdf-syntax-ns#"
   xmlns:svg="http://www.w3.org/2000/svg"
   xmlns="http://www.w3.org/2000/svg"
   width="17in"
   height="11in"
   viewBox="0 0 431.80001 279.40001"
   version="1.1"
   id="svg8">
  <defs
     id="defs2" />
  <metadata
     id="metadata5">
    <rdf:RDF>
      <cc:Work
         rdf:about="">
        <dc:format>image/svg+xml</dc:format>
        <dc:type
           rdf:resource="http://purl.org/dc/dcmitype/StillImage" />
        <dc:title></dc:title>
      </cc:Work>
    </rdf:RDF>
  </metadata>
  <path
     id="rect1878"
     d="m 20.394924,169.67635 h 53.443579 c 4.431933,0 7.999879,3.56794 7.999879,7.99987 v 83.44359 c 0,4.43193 -3.567946,7.99988 -7.999879,7.99988 H 20.394924 c -4.431933,0 -7.999879,-3.56795 -7.999879,-7.99988 v -83.44359 c 0,-4.43193 3.567946,-7.99987 7.999879,-7.99987 z"
     style="opacity:1;fill:none;fill-opacity:1;stroke:#ffffff;stroke-width:0.1;stroke-miterlimit:4;stroke-dasharray:none;stroke-opacity:1" />
  <path
     id="path1880"
     d="m 21.483484,181.68963 v -4.01504 l 12.37042,0.059 0.0301,-3.21586 0.85026,-0.01 -0.0417,-3.30521 h 26.8764 l 0.003,3.31259 0.80567,0.003 v 27.11194 l -0.798,-0.002 -0.0106,21.95944 h -26.87646 l -0.006,-21.94769 -0.80232,-0.009 -0.0301,-19.94008 z"
     style="opacity:1;fill:none;fill-opacity:1;stroke:#ffffff;stroke-width:0.1;stroke-miterlimit:4;stroke-dasharray:none;stroke-opacity:1" />
  <path
     id="ellipse1882"
     d="m 18.873984,174.79417 a 1.4416475,1.4416474 0 0 1 -1.441647,1.44165 1.4416475,1.4416474 0 0 1 -1.441648,-1.44165 1.4416475,1.4416474 0 0 1 1.441648,-1.44164 1.4416475,1.4416474 0 0 1 1.441647,1.44164 z"
     style="opacity:1;fill:none;fill-opacity:1;stroke:#ffffff;stroke-width:0.1;stroke-miterlimit:4;stroke-dasharray:none;stroke-opacity:1" />
  <path
     id="ellipse1884"
     d="m 78.034352,174.79417 a 1.4416475,1.4416474 0 0 1 -1.441647,1.44165 1.4416475,1.4416474 0 0 1 -1.441648,-1.44165 1.4416475,1.4416474 0 0 1 1.441648,-1.44164 1.4416475,1.4416474 0 0 1 1.441647,1.44164 z"
     style="opacity:1;fill:none;fill-opacity:1;stroke:#ffffff;stroke-width:0.1;stroke-miterlimit:4;stroke-dasharray:none;stroke-opacity:1" />
  <path
     id="ellipse1886"
     d="m 18.873984,261.90396 a 1.4416475,1.4416474 0 0 1 -1.441647,1.44165 1.4416475,1.4416474 0 0 1 -1.441648,-1.44165 1.4416475,1.4416474 0 0 1 1.441648,-1.44165 1.4416475,1.4416474 0 0 1 1.441647,1.44165 z"
     style="opacity:1;fill:none;fill-opacity:1;stroke:#ffffff;stroke-width:0.1;stroke-miterlimit:4;stroke-dasharray:none;stroke-opacity:1" />
  <path
     id="ellipse1888"
     d="m 78.034352,261.90396 a 1.4416475,1.4416474 0 0 1 -1.441647,1.44165 1.4416475,1.4416474 0 0 1 -1.441648,-1.44165 1.4416475,1.4416474 0 0 1 1.441648,-1.44165 1.4416475,1.4416474 0 0 1 1.441647,1.44165 z"
     style="opacity:1;fill:none;fill-opacity:1;stroke:#ffffff;stroke-width:0.1;stroke-miterlimit:4;stroke-dasharray:none;stroke-opacity:1" />
  <path
     id="path1896"
     d="m 56.062654,224.91716 v 4.05472 l -0.12378,9.35947 c 0,4.87234 -3.94982,8.82216 -8.82217,8.82216 -4.87235,0 -8.82216,-3.94982 -8.82216,-8.82216 l -0.10576,-7.20742 -8.788078,0 v -6.22213 l 8.773846,0.008 z"
     style="opacity:1;fill:none;fill-opacity:1;stroke:#ffffff;stroke-width:0.1;stroke-miterlimit:4;stroke-dasharray:none;stroke-opacity:1" />
  <path
     id="rect1898"
     d="m 29.170473,251.18823 h 35.892456 v 9.72602 H 29.170473 Z"
     style="opacity:1;fill:none;fill-opacity:1;stroke:#ffffff;stroke-width:0.1035589;stroke-miterlimit:4;stroke-dasharray:none;stroke-opacity:1" />
  <path
     id="rect1794"
     d="m 90.9358,169.67635 h 53.44358 c 4.43193,0 7.99988,3.56794 7.99988,7.99987 v 83.44359 c 0,4.43193 -3.56795,7.99988 -7.99988,7.99988 H 90.9358 c -4.431933,0 -7.999879,-3.56795 -7.999879,-7.99988 v -83.44359 c 0,-4.43193 3.567946,-7.99987 7.999879,-7.99987 z"
     style="opacity:1;fill:none;fill-opacity:1;stroke:#ffffff;stroke-width:0.1;stroke-miterlimit:4;stroke-dasharray:none;stroke-opacity:1" />
  <path
     style="opacity:1;fill:none;fill-opacity:1;stroke:#ffffff;stroke-width:0.1;stroke-miterlimit:4;stroke-dasharray:none;stroke-opacity:1"
     d="m 104.40052,185.61749 -0.005,-3.92794 -12.370671,8e-5 v -4.01504 l 12.370421,0.059 0.0301,-3.21586 0.85026,-0.01 -0.0417,-3.30521 h 26.8764 l 0.003,3.31259 0.80567,0.003 v 11.09965 z m 27.72048,16.01566 -0.0106,21.95357 h -26.87646 l -0.006,-21.95357 z"
     id="path1796" />
  <path
     id="ellipse1798"
     d="m 89.414861,174.79417 a 1.4416475,1.4416474 0 0 1 -1.441648,1.44165 1.4416475,1.4416474 0 0 1 -1.441647,-1.44165 1.4416475,1.4416474 0 0 1 1.441647,-1.44164 1.4416475,1.4416474 0 0 1 1.441648,1.44164 z"
     style="opacity:1;fill:none;fill-opacity:1;stroke:#ffffff;stroke-width:0.1;stroke-miterlimit:4;stroke-dasharray:none;stroke-opacity:1" />
  <path
     id="ellipse1800"
     d="m 148.57522,174.79417 a 1.4416475,1.4416474 0 0 1 -1.44164,1.44165 1.4416475,1.4416474 0 0 1 -1.44165,-1.44165 1.4416475,1.4416474 0 0 1 1.44165,-1.44164 1.4416475,1.4416474 0 0 1 1.44164,1.44164 z"
     style="opacity:1;fill:none;fill-opacity:1;stroke:#ffffff;stroke-width:0.1;stroke-miterlimit:4;stroke-dasharray:none;stroke-opacity:1" />
  <path
     id="ellipse1802"
     d="m 89.414861,261.90396 a 1.4416475,1.4416474 0 0 1 -1.441648,1.44165 1.4416475,1.4416474 0 0 1 -1.441647,-1.44165 1.4416475,1.4416474 0 0 1 1.441647,-1.44165 1.4416475,1.4416474 0 0 1 1.441648,1.44165 z"
     style="opacity:1;fill:none;fill-opacity:1;stroke:#ffffff;stroke-width:0.1;stroke-miterlimit:4;stroke-dasharray:none;stroke-opacity:1" />
  <path
     id="ellipse1804"
     d="m 148.57522,261.90396 a 1.4416475,1.4416474 0 0 1 -1.44164,1.44165 1.4416475,1.4416474 0 0 1 -1.44165,-1.44165 1.4416475,1.4416474 0 0 1 1.44165,-1.44165 1.4416475,1.4416474 0 0 1 1.44164,1.44165 z"
     style="opacity:1;fill:none;fill-opacity:1;stroke:#ffffff;stroke-width:0.1;stroke-miterlimit:4;stroke-dasharray:none;stroke-opacity:1" />
  <path
     id="path1874"
     d="m 126.49788,238.007 a 8.9072456,8.9072456 0 0 1 -8.90724,8.90725 8.9072456,8.9072456 0 0 1 -8.90725,-8.90725 8.9072456,8.9072456 0 0 1 8.90725,-8.90724 8.9072456,8.9072456 0 0 1 8.90724,8.90724 z"
     style="opacity:1;fill:none;fill-opacity:1;stroke:#ffffff;stroke-width:0.1;stroke-miterlimit:4;stroke-dasharray:none;stroke-opacity:1" />
  <path
     id="rect1876"
     d="m 99.863014,224.90179 h 8.777646 v 6.22213 h -8.777646 z"
     style="opacity:1;fill:none;fill-opacity:1;stroke:#ffffff;stroke-width:0.1;stroke-miterlimit:4;stroke-dasharray:none;stroke-opacity:1" />
  <path
     id="rect2076"
     d="m 99.759209,251.14246 h 16.268701 v 9.11918 H 99.759209 Z"
     style="opacity:1;fill:none;fill-opacity:1;stroke:#ffffff;stroke-width:0.09450299;stroke-miterlimit:4;stroke-dasharray:none;stroke-opacity:1" />
  <path
     id="ellipse2109"
     d="m 159.95533,174.79417 a 1.4416475,1.4416474 0 0 1 -1.44164,1.44165 1.4416475,1.4416474 0 0 1 -1.44165,-1.44165 1.4416475,1.4416474 0 0 1 1.44165,-1.44164 1.4416475,1.4416474 0 0 1 1.44164,1.44164 z"
     style="opacity:1;fill:none;fill-opacity:1;stroke:#ffffff;stroke-width:0.1;stroke-miterlimit:4;stroke-dasharray:none;stroke-opacity:1" />
  <path
     id="ellipse2111"
     d="m 219.1157,174.79417 a 1.4416475,1.4416474 0 0 1 -1.44164,1.44165 1.4416475,1.4416474 0 0 1 -1.44165,-1.44165 1.4416475,1.4416474 0 0 1 1.44165,-1.44164 1.4416475,1.4416474 0 0 1 1.44164,1.44164 z"
     style="opacity:1;fill:none;fill-opacity:1;stroke:#ffffff;stroke-width:0.1;stroke-miterlimit:4;stroke-dasharray:none;stroke-opacity:1" />
  <path
     id="ellipse2113"
     d="m 159.95533,261.90396 a 1.4416475,1.4416474 0 0 1 -1.44164,1.44165 1.4416475,1.4416474 0 0 1 -1.44165,-1.44165 1.4416475,1.4416474 0 0 1 1.44165,-1.44165 1.4416475,1.4416474 0 0 1 1.44164,1.44165 z"
     style="opacity:1;fill:none;fill-opacity:1;stroke:#ffffff;stroke-width:0.1;stroke-miterlimit:4;stroke-dasharray:none;stroke-opacity:1" />
  <path
     id="ellipse2115"
     d="m 219.1157,261.90396 a 1.4416475,1.4416474 0 0 1 -1.44164,1.44165 1.4416475,1.4416474 0 0 1 -1.44165,-1.44165 1.4416475,1.4416474 0 0 1 1.44165,-1.44165 1.4416475,1.4416474 0 0 1 1.44164,1.44165 z"
     style="opacity:1;fill:none;fill-opacity:1;stroke:#ffffff;stroke-width:0.1;stroke-miterlimit:4;stroke-dasharray:none;stroke-opacity:1" />
  <path
     style="opacity:1;fill:none;fill-opacity:1;stroke:#ffffff;stroke-width:0.1;stroke-miterlimit:4;stroke-dasharray:none;stroke-opacity:1"
     d="m 202.64058,171.17319 v 52.38082 h -26.89481 v -52.38082 l 7.53773,-0.0123 c 0.86662,0 0.32405,-1.47825 -0.61213,-1.47825 l -21.19469,-0.006 c -4.43193,-0.001 -7.99988,3.56794 -7.99988,7.99988 v 83.44362 c 0,4.43194 3.56795,7.99988 7.99988,7.99988 h 53.44358 c 4.43194,0 7.99988,-3.56794 7.99988,-7.99988 v -83.44358 c 0,-4.43194 -3.56794,-8.00142 -7.99988,-7.99988 l -18.17807,0.006 c -1.06176,0 -1.90521,1.47822 -0.9514,1.47822 z"
     id="path2121" />
  <path
     id="rect2125"
     d="m 170.40349,224.90179 h 8.77764 v 6.22213 h -8.77764 z"
     style="opacity:1;fill:none;fill-opacity:1;stroke:#ffffff;stroke-width:0.1;stroke-miterlimit:4;stroke-dasharray:none;stroke-opacity:1" />
  <path
     id="rect2127"
     d="m 162.57027,177.62474 h 12.3887 v 4.05549 h -12.3887 z"
     style="opacity:1;fill:none;fill-opacity:1;stroke:#ffffff;stroke-width:0.1;stroke-miterlimit:4;stroke-dasharray:none;stroke-opacity:1" />
  <path
     id="rect2129"
     d="m 170.3799,251.14246 h 16.2687 v 9.11918 h -16.2687 z"
     style="opacity:1;fill:none;fill-opacity:1;stroke:#ffffff;stroke-width:0.09450299;stroke-miterlimit:4;stroke-dasharray:none;stroke-opacity:1" />
  <path
     id="rect2131-9"
     d="m 302.55844,169.67635 h 53.44358 c 4.43193,0 7.99988,3.56794 7.99988,7.99987 v 83.44359 c 0,4.43193 -3.56795,7.99988 -7.99988,7.99988 h -53.44358 c -4.43193,0 -7.99988,-3.56795 -7.99988,-7.99988 v -83.44359 c 0,-4.43193 3.56795,-7.99987 7.99988,-7.99987 z"
     style="opacity:1;fill:none;fill-opacity:1;stroke:#ffffff;stroke-width:0.1;stroke-miterlimit:4;stroke-dasharray:none;stroke-opacity:1" />
  <path
     id="ellipse2133-0"
     d="m 301.03753,174.79416 a 1.4416475,1.4416474 0 0 1 -1.44164,1.44165 1.4416475,1.4416474 0 0 1 -1.44165,-1.44165 1.4416475,1.4416474 0 0 1 1.44165,-1.44165 1.4416475,1.4416474 0 0 1 1.44164,1.44165 z"
     style="opacity:1;fill:none;fill-opacity:1;stroke:#ffffff;stroke-width:0.1;stroke-miterlimit:4;stroke-dasharray:none;stroke-opacity:1" />
  <path
     id="ellipse2135-6"
     d="m 360.19787,174.79416 a 1.4416475,1.4416474 0 0 1 -1.44164,1.44165 1.4416475,1.4416474 0 0 1 -1.44165,-1.44165 1.4416475,1.4416474 0 0 1 1.44165,-1.44165 1.4416475,1.4416474 0 0 1 1.44164,1.44165 z"
     style="opacity:1;fill:none;fill-opacity:1;stroke:#ffffff;stroke-width:0.1;stroke-miterlimit:4;stroke-dasharray:none;stroke-opacity:1" />
  <path
     id="ellipse2137-2"
     d="m 301.03753,261.90393 a 1.4416475,1.4416474 0 0 1 -1.44164,1.44165 1.4416475,1.4416474 0 0 1 -1.44165,-1.44165 1.4416475,1.4416474 0 0 1 1.44165,-1.44165 1.4416475,1.4416474 0 0 1 1.44164,1.44165 z"
     style="opacity:1;fill:none;fill-opacity:1;stroke:#ffffff;stroke-width:0.1;stroke-miterlimit:4;stroke-dasharray:none;stroke-opacity:1" />
  <path
     id="ellipse2139-6"
     d="m 360.19787,261.90393 a 1.4416475,1.4416474 0 0 1 -1.44164,1.44165 1.4416475,1.4416474 0 0 1 -1.44165,-1.44165 1.4416475,1.4416474 0 0 1 1.44165,-1.44165 1.4416475,1.4416474 0 0 1 1.44164,1.44165 z"
     style="opacity:1;fill:none;fill-opacity:1;stroke:#ffffff;stroke-width:0.1;stroke-miterlimit:4;stroke-dasharray:none;stroke-opacity:1" />
  <path
     id="rect1181"
     d="m 304.01251,177.59386 h 50.53542 c 1.09934,0 1.98437,0.88503 1.98437,1.98437 v 79.63958 c 0,1.09935 -0.88503,1.98438 -1.98437,1.98438 h -50.53542 c -1.09934,0 -1.98437,-0.88503 -1.98437,-1.98438 v -79.63958 c 0,-1.09934 0.88503,-1.98437 1.98437,-1.98437 z"
     style="opacity:1;fill:none;fill-opacity:1;stroke:#ffffff;stroke-width:0.1;stroke-miterlimit:4;stroke-dasharray:none;stroke-opacity:1" />
  <path
     id="rect1194"
     d="m 232.01756,169.67635 h 53.44358 c 4.43194,0 7.99988,3.56794 7.99988,7.99987 v 83.44359 c 0,4.43193 -3.56794,7.99988 -7.99988,7.99988 h -53.44358 c -4.43193,0 -7.99988,-3.56795 -7.99988,-7.99988 v -83.44359 c 0,-4.43193 3.56795,-7.99987 7.99988,-7.99987 z"
     style="opacity:1;fill:none;fill-opacity:1;stroke:#ffffff;stroke-width:0.1;stroke-miterlimit:4;stroke-dasharray:none;stroke-opacity:1" />
  <path
     id="ellipse1196"
     d="m 230.49664,174.79416 a 1.4416475,1.4416474 0 0 1 -1.44165,1.44165 1.4416475,1.4416474 0 0 1 -1.44164,-1.44165 1.4416475,1.4416474 0 0 1 1.44164,-1.44165 1.4416475,1.4416474 0 0 1 1.44165,1.44165 z"
     style="opacity:1;fill:none;fill-opacity:1;stroke:#ffffff;stroke-width:0.1;stroke-miterlimit:4;stroke-dasharray:none;stroke-opacity:1" />
  <path
     id="ellipse1198"
     d="m 289.65701,174.79416 a 1.4416475,1.4416474 0 0 1 -1.44165,1.44165 1.4416475,1.4416474 0 0 1 -1.44164,-1.44165 1.4416475,1.4416474 0 0 1 1.44164,-1.44165 1.4416475,1.4416474 0 0 1 1.44165,1.44165 z"
     style="opacity:1;fill:none;fill-opacity:1;stroke:#ffffff;stroke-width:0.1;stroke-miterlimit:4;stroke-dasharray:none;stroke-opacity:1" />
  <path
     id="ellipse1200"
     d="m 230.49664,261.90393 a 1.4416475,1.4416474 0 0 1 -1.44165,1.44165 1.4416475,1.4416474 0 0 1 -1.44164,-1.44165 1.4416475,1.4416474 0 0 1 1.44164,-1.44165 1.4416475,1.4416474 0 0 1 1.44165,1.44165 z"
     style="opacity:1;fill:none;fill-opacity:1;stroke:#ffffff;stroke-width:0.1;stroke-miterlimit:4;stroke-dasharray:none;stroke-opacity:1" />
  <path
     id="ellipse1202"
     d="m 289.65701,261.90393 a 1.4416475,1.4416474 0 0 1 -1.44165,1.44165 1.4416475,1.4416474 0 0 1 -1.44164,-1.44165 1.4416475,1.4416474 0 0 1 1.44164,-1.44165 1.4416475,1.4416474 0 0 1 1.44165,1.44165 z"
     style="opacity:1;fill:none;fill-opacity:1;stroke:#ffffff;stroke-width:0.1;stroke-miterlimit:4;stroke-dasharray:none;stroke-opacity:1" />
</svg>
